<?xml version="1.0" encoding="utf-8"?>
<!-- Generator: Adobe Illustrator 28.3.0, SVG Export Plug-In . SVG Version: 6.00 Build 0)  -->
<svg version="1.1"
	 id="svg2" xmlns:svg="http://www.w3.org/2000/svg" xmlns:cc="http://creativecommons.org/ns#" xmlns:dc="http://purl.org/dc/elements/1.1/" xmlns:rdf="http://www.w3.org/1999/02/22-rdf-syntax-ns#"
	 xmlns="http://www.w3.org/2000/svg" xmlns:xlink="http://www.w3.org/1999/xlink" x="0px" y="0px" viewBox="0 0 1680 559.6"
	 style="enable-background:new 0 0 1680 559.6;" xml:space="preserve">
<path id="path14" d="M1146.7,475.3c-3.2,0.6-8.9,1.7-13.9,1.7c-17.3,0-27-7.3-27-27c0-20.5,13-27.8,29.3-27.8c5,0,8.4,0.9,11,1.7
	v9.7c-1.9-0.5-7.2-1.5-11.2-1.5c-9.5,0-17,1.5-17,17.5c0,15.8,7.8,17.6,16.4,17.6c4.6,0,8.3-0.9,12.4-1.8L1146.7,475.3"/>
<path id="path16" d="M1195.2,449.5c0-14.2-4.7-18.6-12.2-18.6c-7.7,0-12.4,5.1-12.6,18.6c-0.2,13.4,4.7,18.6,12.4,18.6
	C1190.4,468.1,1195.2,463.7,1195.2,449.5z M1158.3,449.6c0-20.3,9.8-27.4,24.7-27.4c14.8,0,24.4,7.6,24.4,27.4s-9.7,27.4-24.6,27.4
	C1168,477,1158.3,469.6,1158.3,449.6"/>
<path id="path18" d="M1237.3,448.6c5.7,0,10.7-1.7,10.7-8.5c0-6.7-4-7.9-10.5-7.9h-3.7v16.3h3.5V448.6z M1222.1,422.9h14.8
	c16.3,0,23.1,4.4,23.1,16.7c0,10.1-5.2,12.8-11.3,14.6v0.9l1.6,0.3c5.6,2.1,8.9,12.7,12.3,19.3v1.4h-12.8
	c-2.5-7.1-5.2-17.9-10.5-19.4h-5.6v19.4h-11.5L1222.1,422.9"/>
<path id="path20" d="M1287.8,449.7h4.2c6.7,0,10.1-2.1,10.1-8.8c0-6.7-3.4-8.6-9.5-8.6h-4.7L1287.8,449.7L1287.8,449.7z
	 M1276.2,422.9h14.5c15.7,0,23.4,3.6,23.4,17.3c0,13.7-9.1,17.6-20.5,17.6h-5.8v18.4h-11.5L1276.2,422.9"/>
<path id="path22" d="M1361,449.5c0-14.2-4.7-18.6-12.2-18.6c-7.7,0-12.4,5.1-12.6,18.6c-0.2,13.4,4.7,18.6,12.4,18.6
	C1356.2,468.1,1361,463.7,1361,449.5L1361,449.5z M1324,449.6c0-20.3,9.9-27.4,24.7-27.4c14.8,0,24.4,7.6,24.4,27.4
	s-9.7,27.4-24.6,27.4C1333.7,477,1324,469.6,1324,449.6"/>
<path id="path24" d="M1403,448.6c5.7,0,10.7-1.7,10.7-8.5c0-6.7-4-7.9-10.5-7.9h-3.7v16.3h3.5V448.6z M1387.9,422.9h14.8
	c16.3,0,23.1,4.4,23.1,16.7c0,10.1-5.2,12.8-11.3,14.6v0.9l1.6,0.3c5.6,2.1,8.9,12.7,12.3,19.3v1.4h-12.8
	c-2.5-7.1-5.2-17.9-10.5-19.4h-5.6v19.4H1388L1387.9,422.9"/>
<path id="path26" d="M1468.4,456.6l-5.3-18.4l-0.6-3h-0.8l-0.6,3l-5.6,18.4H1468.4z M1437.5,475l19-52.5h11.3l19.9,52.5v1.2H1475
	l-4.4-11.9h-16.7l-3.9,11.9h-12.4L1437.5,475"/>
<path id="path28" d="M1507.4,432.1l-15,0.4V423h41.6v9.5l-15.1-0.4v44.1h-11.5V432.1"/>
<path id="path30" d="M1546.2,476.2v-53.3h11.5v53.3H1546.2"/>
<path id="path32" d="M1608.3,449.5c0-14.2-4.7-18.6-12.2-18.6c-7.7,0-12.4,5.1-12.6,18.6c-0.2,13.4,4.7,18.6,12.4,18.6
	C1603.5,468.1,1608.3,463.7,1608.3,449.5z M1571.4,449.6c0-20.3,9.8-27.4,24.7-27.4c14.8,0,24.4,7.6,24.4,27.4s-9.7,27.4-24.6,27.4
	C1581.1,477,1571.4,469.6,1571.4,449.6"/>
<path id="path34" d="M1635.3,422.9h10.1l19.7,28l2.7,4.6h0.7v-32.6h11.5v53.3h-9.9l-20.2-29.1l-2.3-3.9h-0.8v33h-11.5L1635.3,422.9"
	/>
<path id="path36" d="M396.2,60.6l-86.4,315.7h-50.2L198.5,147l-62,229.3H86.4L0,60.6h49.7l61.5,229.3l62-229.3h49.3l62.4,229.3
	l61.5-229.3L396.2,60.6"/>
<path id="path38" d="M419.2,61.5l49.7-4.1v77.3l-0.9,28.9h1.8c23.1-8.6,41.6-12.7,64.2-12.7c40.3,0,67.4,18.1,67.4,87.3v137.9h-49.7
	V242.4c0-41.6-20.4-47-43.4-47c-14.5,0-26.7,3.2-39.4,6.8v174.1h-49.7V61.5"/>
<path id="path40" d="M644.9,154.2h49.7v222.1h-49.7V154.2z M669.7,64.7c25.8,0,29.9,14.9,29.9,31.7c0,16.7-5.4,32.1-29.9,32.1
	c-24.4,0-29.4-15.4-29.4-32.1C640.3,79.6,644.9,64.7,669.7,64.7"/>
<path id="path42" d="M736.7,154.2h33.9l6.8,18.1h3.2c13.1-11.3,33.9-21.3,61.1-21.3c3.2,0,6.8,0,10.4,0.5v48.8
	c-9-1.3-18.5-2.7-28-2.7c-13.6,0-24.4,3.2-37.5,9v169.6h-49.7v-222"/>
<path id="path44" d="M873.2,376.3V61.5l49.7-4.1v318.8h-49.7"/>
<path id="path46" d="M1323.6,266.4c0-42-6.8-76.4-46.6-76.4c-40.2,0-50.2,33-50.2,76.4c0,40.3,8.1,75.1,47.9,75.1
	C1314.6,341.4,1323.6,308.4,1323.6,266.4z M1276.6,151c70.6,0,97.7,41.6,97.7,115.3c0,69.2-25.3,114.4-98.6,114.4
	c-73.3,0-99-45.2-99-114.4C1176.7,192.6,1206.1,151,1276.6,151"/>
<path id="path48" d="M1546.7,266.4c0-42-6.8-76.4-46.6-76.4c-40.3,0-50.2,33-50.2,76.4c0,40.3,8.1,75.1,47.9,75.1
	C1537.7,341.4,1546.7,308.4,1546.7,266.4z M1499.7,151c70.5,0,97.7,41.6,97.7,115.3c0,69.2-25.3,114.4-98.6,114.4
	c-73.3,0-99.1-45.2-99.1-114.4C1399.7,192.6,1429.1,151,1499.7,151"/>
<path id="path50" d="M1629.6,376.3V61.5l49.7-4.1v318.8h-49.7"/>
<path id="path52" d="M1013.4,335.1c14,0.4,21.7,0.9,36.2,0.9c30.7,0,51.1-16.3,51.1-81c0-44.3-18.1-56.1-50.7-56.1
	c-12.7,0-24.4,2.2-36.6,6.3V335.1z M963.7,154.2h37.5l4.1,16.3c14.9-8.1,42.5-19.4,67.4-19.4c45.2,0,78.2,33,78.2,112.1
	c0,77.8-34.8,116.2-92.7,116.2c-21.3,0-44.8-4.5-44.8-4.5v101.8l-49.7,5.4L963.7,154.2"/>
<path id="path54" d="M1210,17.8c-37.2-43.1-155.2-5.2-287,86v23c116-82.5,218.3-120.5,247.6-86.6c36.6,42.4-54.4,181-203.2,309.4
	C818.5,478,668.1,547.6,631.6,505.2c-19-22-3.5-70,36.6-129h-23.3c-49.6,74-68.2,136.2-42.7,165.7c46.4,53.8,220.2-19.8,388-164.6
	C1157.9,232.5,1256.4,71.6,1210,17.8"/>
</svg>
