<?xml version="1.0" encoding="utf-8"?>
<!-- Generator: Adobe Illustrator 28.3.0, SVG Export Plug-In . SVG Version: 6.00 Build 0)  -->
<svg version="1.1" id="Layer_1" xmlns="http://www.w3.org/2000/svg" xmlns:xlink="http://www.w3.org/1999/xlink" x="0px" y="0px"
	 viewBox="0 0 64.6 16.2" style="enable-background:new 0 0 64.6 16.2;" xml:space="preserve">
<path d="M6.3,0.8h4.4l6.2,14.9h-4.6L8.4,5.8l-2.6,6.5h3.1l1.2,3.4H0L6.3,0.8z M22,3.9c0.5,0,0.9,0,1.4,0.2V0.4h3.9v14.7
	c-0.9,0.4-2.8,0.9-4.7,0.9c-3.5,0-6.5-2-6.5-5.9S19,3.9,22,3.9L22,3.9L22,3.9z M22.5,12.8c0.4,0,0.6-0.1,0.9-0.2V7.2
	c-0.3-0.1-0.6-0.2-1-0.2c-1.3,0-2.5,0.9-2.5,2.9S21.3,12.8,22.5,12.8L22.5,12.8L22.5,12.8z M34.2,3.9c3.2,0,6,2.2,6,6s-2.7,6-6,6
	s-6-2.2-6-6S31,3.9,34.2,3.9z M34.2,12.7c1.1,0,2.1-0.9,2.1-2.8s-1-2.8-2.1-2.8S32.1,8,32.1,9.9S33.1,12.7,34.2,12.7z M41.2,0.4h3.9
	v3.7c0.5-0.1,1-0.2,1.5-0.2c3,0,5.8,2,5.8,5.9c0,4.1-3,6.2-6.5,6.2c-1.5,0-3.5-0.3-4.7-0.9V0.4L41.2,0.4L41.2,0.4z M45.9,12.8
	c1.3,0,2.6-1,2.6-2.9S47.3,7.2,46,7.2c-0.4,0-0.7,0-0.9,0.2v5.2C45.3,12.7,45.6,12.8,45.9,12.8L45.9,12.8L45.9,12.8z M59,3.9
	c2.9,0,5.6,1.9,5.6,5.6c0,0.5,0,1-0.1,1.5h-7.3c0.4,1.3,1.6,1.9,3,1.9c1.2,0,2.3-0.3,3.5-0.8v3c-1.1,0.6-2.5,0.8-3.9,0.8
	c-3.7,0-6.6-2.2-6.6-6S55.8,3.9,59,3.9z M60.9,8.6c-0.2-1.3-1-1.8-1.9-1.8s-1.6,0.5-1.9,1.8H60.9z"/>
</svg>
