<?xml version="1.0" encoding="utf-8"?>
<!-- Generator: Adobe Illustrator 28.3.0, SVG Export Plug-In . SVG Version: 6.00 Build 0)  -->
<svg version="1.1" id="Layer_1" xmlns="http://www.w3.org/2000/svg" xmlns:xlink="http://www.w3.org/1999/xlink" x="0px" y="0px"
	 viewBox="0 0 1200 720" style="enable-background:new 0 0 1200 720;" xml:space="preserve">
<path d="M600,0c0,199.8,0,399.6,0,600c-2.5,0-4.6,0-6.7,0c-195.5,0-390.9,0-586.4,0c-2.3,0-4.7,0.1-7,0.1C0,400.1,0,200,0,0
	C200,0,400,0,600,0z M401.7,347.5c-28.6,49.1-95.3,67-144.8,26.8c-42.7-34.7-47.9-96.6-11.5-137.5c17.7-20,40.2-31.2,66.9-32.8
	c39.4-2.3,68.2,16.1,89.3,48.3c49.8-28.5,99.2-56.7,148.5-85C494,64.2,373.6,12.5,258.9,38.1C140.5,64.6,47.7,170.5,49.7,303.4
	c1.9,129,92,236.7,219.3,260.4c117.7,21.9,229.7-37.4,281-131.1C500.7,404.3,451.3,376,401.7,347.5z"/>
<path d="M643.4,42.9c2,0,3.6,0,5.2,0c53.7,0,107.3,0,161-0.1c3.5,0,5.7,1,7.9,3.8c54.3,68.1,108.8,136.1,163.2,204.2
	c1.4,1.8,2.9,3.5,5.1,6.3c0-72,0-142.7,0-213.8c57.2,0,113.9,0,171,0c0,171,0,342.1,0,513.8c-1.9,0-3.9,0-5.8,0
	c-53.2,0-106.3-0.1-159.5,0.1c-4.1,0-6.6-1.3-9.1-4.4c-54.2-67.8-108.5-135.6-162.7-203.3c-1.4-1.7-2.8-3.4-5.2-6.3
	c0,72.1,0,142.7,0,213.6c-57.2,0-113.9,0-171,0C643.4,385.8,643.4,214.7,643.4,42.9z"/>
<path d="M573.6,716.8c-8,0-15.3,0.1-22.6-0.1c-1.3,0-2.8-1.5-3.8-2.7c-7.2-8.7-14.3-17.5-22.5-27.5c0,10.9,0,20.4,0,30.1
	c-8.4,0-16,0-24,0c0-24.1,0-48.2,0-73c7.6,0,15.3-0.1,23.1,0.1c1.2,0,2.5,2,3.6,3.2c7,8.5,13.9,17,21.7,26.5c0-10.5,0-19.9,0-30
	c7.9,0,15.1-0.1,22.4,0.1c0.8,0,2.1,1.6,2.1,2.5C573.7,669.4,573.6,692.7,573.6,716.8z"/>
<path d="M671.9,643.8c8.4,0,16.2,0,24.1,0c0,24.4,0,48.5,0,73.1c-7.6,0-14.9,0.1-22.1-0.1c-1.3,0-2.8-1.5-3.8-2.7
	c-6.2-7.4-12.2-15-18.3-22.5c-1.1-1.4-2.3-2.7-4.3-5.1c0,10.9,0,20.2,0,30c-8.2,0-15.9,0-24,0c0-24.2,0-48.2,0-73
	c7.6,0,15.2-0.2,22.8,0.2c1.4,0.1,2.9,2,4,3.4c7,8.5,13.9,17,21.7,26.6C671.9,663,671.9,653.5,671.9,643.8z"/>
<path d="M859.3,643.5c7.2,0,14.5-0.2,21.8,0.2c1,0,2.5,2.3,2.8,3.8c1.9,8.8,3.5,17.6,5.4,28c4.3-10.3,8.1-19.3,12.2-29.1
	c4.2,9.8,8,18.8,12.3,29c2.2-11.2,4.2-21.3,6.2-31.5c8,0,15.7,0,24.2,0c-1.1,6-2.1,11.8-3.2,17.6c-3.3,17.2-6.7,34.3-9.8,51.5
	c-0.6,3.1-1.7,4.3-4.8,4.1c-5.3-0.3-11.7,1.5-15.6-0.8c-3.7-2.2-4.7-8.8-6.9-13.5c-0.7-1.5-1.4-3-2.5-5.4
	c-2.6,5.8-5.1,10.9-7.2,16.2c-1,2.5-2.3,3.7-5.2,3.5c-4.3-0.2-8.7,0.1-13-0.2c-1.4-0.1-3.5-1.5-3.8-2.6
	c-4.6-22.8-8.9-45.7-13.3-68.6C858.9,645.1,859.1,644.6,859.3,643.5z"/>
<path d="M236.5,692.9c4.7,8,9.1,15.5,14,23.9c-9,0-17,0.1-25.1-0.1c-1.2,0-2.6-1.7-3.3-3c-2.4-4.2-4.8-8.4-6.5-12.9
	c-1.9-4.9-4.9-6.7-10.6-5c0,6.6,0,13.4,0,20.7c-8.4,0-16.1,0-24.3,0c-0.1-1.7-0.3-3.3-0.3-4.9c0-21,0.1-42-0.1-62.9
	c0-4.2,1.2-5.4,5.3-5.3c12.1,0.3,24.3,0.1,36.5,0.1c13.3,0,23.1,6.3,27.1,17.3c4,11.1,0.3,21.7-10.4,30.3
	C238.1,691.5,237.5,692.1,236.5,692.9z M205,677.1c5.5,0,10.8,0.5,16-0.3c2-0.3,4.6-3.4,4.9-5.6c0.3-1.8-2.2-5.6-3.8-5.8
	c-5.6-0.7-11.4-0.3-17-0.3C205,669.4,205,673,205,677.1z"/>
<path d="M1086.2,692.8c4.7,8,9.1,15.5,14,24c-9.1,0-17.3,0.1-25.5-0.1c-1,0-2.2-1.7-2.9-2.9c-2.3-4.2-4.8-8.4-6.5-12.9
	c-1.9-4.9-4.8-6.9-10.6-5c0,6.5,0,13.4,0,20.6c-8.4,0-16.1,0-24.2,0c0-24.2,0-48.2,0-73c2.8,0,5.6,0,8.3,0c11,0,22,0,33,0
	c13.3,0,23.2,6.3,27.1,17.2c4,11,0.2,21.9-10.4,30.3C1087.9,691.5,1087.2,692,1086.2,692.8z M1054.7,677.1c5.4,0,10.6,0.2,15.7-0.1
	c3.8-0.2,5.7-2.7,5.6-6.3c-0.1-3.4-2.1-5.6-5.7-5.7c-5.1-0.1-10.2,0-15.6,0C1054.7,669.2,1054.7,673,1054.7,677.1z"/>
<path d="M707.2,643.7c21.1,0,42.1,0,63.4,0c0,6.9,0,13.6,0,21.1c-12.9,0-25.9,0-39.2,0c0,2.8,0,4.8,0,7.4c11,0,21.7,0,32.9,0
	c0,5.8,0,11.2,0,17.2c-10.9,0-21.7,0-32.8,0c0,2.7,0,4.9,0,7.6c12.9,0,25.8,0,39.1,0c0,6.7,0,12.9,0,19.5c-21,0-42.1,0-63.4,0
	C707.2,692.2,707.2,668.1,707.2,643.7z"/>
<path d="M1133.9,665.6c4.9-6.3,9.6-12.7,14.7-18.9c1.2-1.5,3.3-3,5.1-3.1c9-0.3,18-0.1,28.4-0.1c-9.8,12.1-18.9,23.3-28.3,35
	c9.2,12.4,18.3,24.8,28.3,38.4c-4.7,0-8.4,0-12.1,0c-6.3-0.1-13.7,1.7-18.6-0.9c-5-2.6-7.5-9.8-11.1-14.9c-2.2-3.1-4.3-6.3-7.6-9.4
	c0,5.3,0,10.6,0,16c0,9.3,0,9.3-9.1,9.3c-5,0-9.9,0-15.2,0c0-24.6,0-48.6,0-73.3c7.4,0,14.7-0.1,21.9,0.2c0.8,0,2.2,2.5,2.2,3.9
	c0.3,5.9,0.1,11.8,0.1,17.8C1133.1,665.4,1133.5,665.5,1133.9,665.6z"/>
<path d="M416.7,680.2c0.1-21.3,16.9-38.2,38-38.1c21,0.1,38.2,17.2,38.2,38.1c0,21.2-17,38.1-38.1,38
	C433.5,718.2,416.6,701.3,416.7,680.2z M468.5,680.4c0.1-7.7-6.2-14.2-13.7-14.2c-7.4,0-13.8,6.2-13.8,13.6
	c-0.1,7.7,6.2,14.2,13.7,14.2C462.1,694,468.4,687.8,468.5,680.4z"/>
<path d="M946.9,679.7c0.2-21.2,17.2-37.9,38.4-37.6c20.9,0.2,37.9,17.6,37.7,38.6c-0.2,21.1-17.3,37.8-38.6,37.6
	C963.3,718,946.6,700.9,946.9,679.7z M984.6,694c7.5,0.1,14.2-6.4,14.2-13.8c0-7.4-6.3-13.8-13.6-13.9c-7.4-0.1-13.9,6-14.1,13.3
	C970.8,687.2,977.1,693.9,984.6,694z"/>
<path d="M333.9,680.5c-0.1-21.3,16.6-38.4,37.6-38.5c21.1-0.1,38.3,16.8,38.4,37.8c0.1,21.3-16.6,38.3-37.7,38.4
	C350.9,718.3,334,701.6,333.9,680.5z M371.9,694c7.4,0,13.8-6.3,13.9-13.6c0.1-7.5-6.3-14.2-13.8-14.2c-7.6,0-14.1,6.6-13.9,14.1
	C358.3,687.7,364.6,694,371.9,694z"/>
<path d="M172.3,716.9c-7.6,0-14.9-0.1-22.2,0.1c-3.4,0.1-3.5-2.3-4.2-4.4c-2.5-8.1-2.5-8.1-10.9-8.1c-1,0-2,0-3,0
	c-3.7,0-8.1-1.2-10.7,0.5c-2.5,1.6-2.8,6.3-4.4,9.4c-0.6,1.2-2.3,2.4-3.5,2.4c-7.3,0.2-14.6,0.1-22.6,0.1c0.6-2.1,0.9-3.8,1.4-5.5
	c6.6-21.1,13.3-42.2,19.7-63.3c1-3.3,2.3-4.9,6.1-4.8c9.5,0.3,19,0,28.4,0.2c1.5,0,3.9,1.4,4.3,2.7c7.4,22.9,14.5,45.9,21.6,68.9
	C172.5,715.5,172.4,715.9,172.3,716.9z M138.3,686.1c-2.2-7.4-4.1-14-6.1-20.7c-0.3,0.1-0.7,0.1-1,0.2c-1.9,6.7-3.8,13.5-5.7,20.5
	C130,686.1,133.8,686.1,138.3,686.1z"/>
<path d="M88.8,661.1c-6.3,3.6-12.6,7.3-18.9,10.9c-8.6-8.7-17.7-9.9-25.3-1.9c-5.5,5.7-4.9,15.2,0.9,20.8c6.6,6.5,14.7,5.6,24.3-2.8
	c6.2,3.6,12.6,7.2,18.9,10.9c-7.6,14.4-25.1,22-41.5,18.2c-16.8-3.9-28.7-18.3-29.2-35.5c-0.5-17.9,10.4-33.3,27-38.2
	C61.9,638.6,79.5,645.5,88.8,661.1z"/>
<path d="M280,716.8c0-17.7,0-34.5,0-51.7c-7.6,0-14.8,0-22.5,0c0-7.3,0-14.2,0-21.5c1.6-0.1,3.3-0.2,4.9-0.2c21,0,41.9,0.1,62.9-0.1
	c4.6-0.1,5.7,1.5,5.4,5.7c-0.3,5.1-0.1,10.2-0.1,15.9c-7.8,0-15,0-23,0c0,3.1,0,5.7,0,8.3c0,13.1-0.1,26.3,0.1,39.4
	c0,3.2-0.9,4.4-4.2,4.3C295.9,716.7,288.3,716.8,280,716.8z"/>
<path d="M852,643.8c0,7.1,0,13.8,0,21.1c-7.5,0-14.8,0-22.6,0c0,17.4,0,34.3,0,51.6c-9.3,0-18,0-27.3,0c0-17,0-33.9,0-51.4
	c-7.9,0-15.2,0-22.9,0c0-7.4,0-14.1,0-21.3C803.3,643.8,827.4,643.8,852,643.8z"/>
</svg>
