<?xml version="1.0" encoding="utf-8"?>
<!-- Generator: Adobe Illustrator 28.3.0, SVG Export Plug-In . SVG Version: 6.00 Build 0)  -->
<svg version="1.1" id="svg3416" xmlns:svg="http://www.w3.org/2000/svg"
	 xmlns="http://www.w3.org/2000/svg" xmlns:xlink="http://www.w3.org/1999/xlink" x="0px" y="0px" viewBox="0 0 986 90"
	 style="enable-background:new 0 0 986 90;" xml:space="preserve">
<style type="text/css">
	.st0{fill-rule:evenodd;clip-rule:evenodd;}
</style>
<path id="path3033" d="M87.6,33.1l27.7-30.6H83.9L61.4,32.3c-2.1,2.6-6.3,4.4-9.4,4.4h-5.3V2.5H3.5v81.9h43.1V59.3h6.8
	c3.1,0,4.7,0.9,6.4,4L72,84.4h52.1L99.9,43.4c-2-3.4-7.4-6.3-13.1-6.3C85.4,37.1,83.9,37.3,87.6,33.1"/>
<path id="path3035" d="M138,84.4h40.7V36.8H138V84.4z"/>
<path id="path3039" d="M159,32.8c11.3-0.8,20-6.6,19.6-13.1c-0.5-6.4-10-11-21.2-10.2c-11.3,0.8-20,6.6-19.6,13.1
	C138.3,29,147.8,33.6,159,32.8"/>
<path id="path3043" d="M194.6,36.5h13.7V20.6h38.4v15.9h15.9v15.6h-15.4v9.4c0,9.4,10.8,8.8,15.6,4.6v13.4
	c-14.8,6.5-39.1,8.3-48.9,1.6c-5.1-3.5-5.7-6.4-5.7-10.7V52.5h-13.7"/>
<path id="path3047" d="M356.4,39.3c-21.1-10.5-49.7-8.7-63.9-1c-22.7,12.3-22.3,32.4-0.3,43.8c15.9,8.3,53.8,6,64-3.4V65.4
	c-15.1,7.7-25.6,6.6-31.9,4.4c-9.8-3.3-10-17.2,2.6-19.6c8.1-1.6,18.4-1.4,29.5,4.4"/>
<path id="path3051" d="M370,9.4v75h38.3V61.3c0.6-14.5,18.8-11.8,18.8-1.1v24.2h38.1V54.8c0-14-25-29.6-56.6-13.7l0.6-31.7"/>
<path id="path3055" d="M588.4,36.7v47.7h41V58.7c0-8.8,18.5-13.1,18.5,0.3v25H684v-29c0-13.6-19.4-31.2-54.6-13.1v-5.3"/>
<path id="path3057" d="M829.9,84.3h40.7V36.8h-40.7V84.3z"/>
<path id="path3061" d="M850.9,32.8c11.2-0.8,20-6.6,19.6-13.1c-0.4-6.4-9.9-11-21.2-10.2c-11.2,0.8-20,6.6-19.5,13.1
	C830.1,29,839.6,33.6,850.9,32.8"/>
<path id="path3077" class="st0" d="M522.6,53.9h15.2c0.2-4.8-3.9-7.3-8.2-7.3C526,46.7,522.6,49.8,522.6,53.9 M574.5,66.2
	c-25.9-2-53.5-0.3-53.5-0.3c8,13.1,40.4,11.1,51.2,2.6l-1.1,11.1c-21.6,12.8-87.6,12.2-88.8-17.6c-1-26.4,38.1-30.2,46.7-30.2
	C549.1,31.7,578.7,41.1,574.5,66.2"/>
<path id="path3081" class="st0" d="M731.5,51.6l11.9-22.2l9.7,22.2H731.5z M693,84.1h22.2l9.5-18.3h34.7l8.3,18.3h52.6l-41-81.4H727
	c5.1,2,6.6,5.4,5.1,8.2"/>
<path id="path3085" class="st0" d="M943.5,54c-6.8-5.1-20-3.8-20,4.3c0,11.7,15.6,9.6,20,6.1V54z M981.9,9.5v74.6h-38.4v-5.1
	c-19.1,14.8-61.8,6.8-61.8-17.1c0-29.3,46.4-33.3,62-23.1V9.5"/>
</svg>
