<svg version="1.2" xmlns="http://www.w3.org/2000/svg" viewBox="0 0 1406 263" width="1406" height="263"><style>.a{fill:#fff}</style><path class="a" d="m598 136.5c-17 0-32.3-0.2-47.6 0.2-2.3 0.1-5.2 2.8-6.5 5.1-4.3 7.5-7.9 15.3-11.8 22.9-0.8-0.1-1.7-0.2-2.5-0.3-0.5-9-1.1-18.1-1.7-27.9-22.4 0-44.3-0.2-66.2 0.3-2.4 0-5.6 3.3-6.9 5.9-3.8 7.2-6.7 14.9-10 22.4-0.8-0.2-1.6-0.3-2.3-0.5-1.1-9-2.2-18-3.4-27.5-17.4 0-34.2 0-51.9 0 2.5 13.9 4.8 27.2 7.2 40.9 59.6 0 118 0 176.5-0.1 1.8 0 4.5-1.2 5.4-2.7 7.2-12.4 14-24.9 21.7-38.7zm-374-49.5c-1.4-0.9-1.6-1.2-1.9-1.2-53.8-0.2-107.6-0.5-161.4-0.5-1.9 0-5.1 2-5.5 3.6-2.7 12.3-4.9 24.7-7.4 38 5 0 8.5 0 11.9 0q66.6 0 133.2 0c25.7 0 29.7-3.8 31.1-29.8 0.1-3.3 0-6.7 0-10.1zm657.9 141.9c13.8 0 26.3 0 38.8 0 16.3 0 16.3 0 20.1-15.9 0.1-0.4 0.9-0.6 1.4-0.9 31.8 43.9 97.9 9.6 108.9-24.2-53.6 0-107.1 0-161 0-2.7 13.4-5.3 26.5-8.2 41zm-844.3-50.9c4.2 0 7.3 0 10.4 0 29.9 0 59.8 0.3 89.7-0.2 8.7-0.1 17.7-1.5 25.8-4.2 19.4-6.6 35.1-18.3 46.7-37-54.2 0-106.7-0.1-159.3 0.3-2.2 0-5.6 3.4-6.2 5.8-2.6 11-4.5 22.4-7.1 35.3zm1193.7 9.9c-54.2 0-107.1 0-160.5 0 3.2 17.9 10.7 32.4 27.4 39.6 27.8 11.8 51.5 2.8 73.5-18.1-1.2 7.5-2.1 13-3.1 19 18.4 0 36.2 0 54.5 0 2.8-13.4 5.4-26.5 8.2-40.5zm-1011.2-113c-2.9-19.3-21.1-37-44-39.1-23.4-2.2-47-1.4-70.5-1.7-13.1-0.2-26.2 0-39.8 0-2.7 13.9-5.3 27-8 40.9 54.6-0.1 108.4-0.1 162.3-0.1zm841 51.7c-3.6-15.2-11.3-26.8-24.8-33.1-27.9-13-52.2-4.2-75.2 16.5 1.6-9.5 2.8-16.7 4.1-24.4-18.8 0-36.6 0-54.9 0-2.7 13.7-5.3 27.1-8.1 41 53.3 0 105.5 0 158.9 0zm-400.8 9.9c-16.2 0-32.2-0.1-48.2 0.2-2 0-5.1 1.8-5.8 3.6-5.1 11.8-8.1 24-6.8 37.7 16.6 0 32.6 0.1 48.6-0.1 1.6 0 4.4-1.1 4.6-2 1-6.7 6.1-5.2 10.2-5.2 28.9-0.1 57.8 0 86.7-0.2 3 0 8.3-1.1 8.7-2.7 2.9-9.9 4.6-20.1 6.9-30.8-20 0-37.5 0-54.9 0-1.5 8.7-1.5 8.8-9 8.8-12.9 0-25.8 0-38.7-0.1-0.8 0-1.6-0.7-2.4-1 0.1-2.7 0.1-5.1 0.1-8.2zm-292.1 51.3c-52.5 0-103.2 0-157 0 6.1 9.8 9.9 18.8 16.3 25.6 17.5 18.5 40.7 20.9 64.4 19 31.7-2.7 57.5-16.2 76.3-44.6zm822.2-78.1c-14-21.8-33.8-25-55.9-20.2-21.9 4.7-38 17.4-50.7 37.5 4.2 0 6.6 0 9.1 0q64.6 0.2 129.3 0.3c20.5 0 20.5 0 24.8-20.3 1-4.8 1.9-9.7 3-15.9-11.7 0-22.6 0-33.5 0-19.6-0.1-19.6-0.1-26.1 18.6zm-590.1 77.6c3.9 17.9 13 30.6 28.7 37.3 33.2 14 65.6 11 96.5-7 11.8-6.9 20.8-16.5 27-30.2-15.7 0-30.1-0.4-44.4 0.2-4.5 0.2-9.6 2.1-13.3 4.7-12 8.4-28.3 7.8-38.8-2-1.6-1.5-4.2-2.8-6.4-2.8-16-0.3-32-0.2-49.3-0.2zm-223.8-60.5c-5-15.1-14.3-25-27.5-31.5-31.4-15.5-78.8-9-106.3 14.8-5.4 4.7-10.1 10.2-16.4 16.8 51.3-0.1 100-0.1 150.2-0.1zm385.2 0.2c-3.8-15.3-12.9-25.6-26-31.1-36-15.1-70.6-11.5-102.7 10.9-7.1 5-12.7 12.1-18.9 18.2 0.6 0.8 1.1 1.7 1.7 2.5 21.5-3.1 43.6 4.3 64.9-5.3 4.8-2.2 11.7-0.5 17.5 0.4 3.5 0.5 6.7 4.2 10.1 4.3 17.6 0.3 35.1 0.1 53.4 0.1zm78.3-35.9c-17.4 0-34.3-0.1-51.2 0.2-1.6 0-4.2 2.1-4.6 3.6-2.3 10.5-4.1 21-6.1 32.2 36.7 0 72.2 0.1 107.6-0.2 2.2 0 5.9-1.9 6.3-3.6 2.6-10.8 4.4-21.7 6.5-32.7-11.9-4.8-22.9-3-32.9 1.6-9.9 4.5-18.7 11.3-28.4 17.4 0.9-5.9 1.8-11.7 2.8-18.5zm475.4 20.9c1.1-8.4 1.9-14.2 2.7-20.5-18.8 0-36.6 0-55 0-2.3 11.9-4.5 23.3-6.8 35.5 30.4 0 59.6 0 88.8 0 7.8 0 18.2 2.6 22.8-1.3 5-4.3 4.8-14.7 6.6-22.5 3.2-14.1 1.3-16.2-13.4-15.2-2.2 0.1-4.3 0.7-6.5 1-15.1 2.3-26.9 10.7-39.2 23zm-822.6 75.8c1.4 13.7 2.7 26.9 4.1 41.1 15.8 0 31.1 0 46.4-0.1 1.3 0 3.3-0.9 3.9-2 7.4-12.7 14.6-25.6 22.2-39-26.5 0-51.2 0-76.6 0zm-96.7 0c2.1 12.6 3.9 24.6 6.5 36.4 0.4 2 4.8 4.4 7.4 4.5 12.2 0.5 24.5 0.4 36.7 0.1 2.4-0.1 6.2-1.1 7.1-2.9 6.4-12.4 12.1-25 18.3-38-25.8-0.1-50.5-0.1-76-0.1zm427.1-10.3c4.6-18.9 13.6-33.8 32.8-40.5-26.6 0-53.2 0-80.1 0-2.7 13.6-5.3 26.8-8 40.5 18.7 0 36.5 0 55.3 0zm510.8-40.4q-39.8 0-79.8 0c-2.7 13.6-5.3 26.7-7.9 40.3 18.9 0 36.9 0 55.3 0 4.5-18.6 13.2-33.4 32.4-40.3zm-1239.9 50.7c-20 0-39 0-58.4 0-2.7 13.5-5.3 26.6-8 40.4 19.8 0 38.7 0 58.4 0 2.6-13.2 5.2-26.3 8-40.4zm806.1-50.8c-2.7 13.4-5.3 26.7-8.1 40.6 20.6 0 40.3 0 60.1 0-3.1-20-2.3-22.7 11.9-40.6-21.4 0-42.3 0-63.9 0zm340.8 0c-21.9 0-43.2 0-65.4 0 10 13.9 7.8 27.1-2.2 40.9 19.2 0 37 0.1 54.8-0.2 2 0 5.3-2.5 5.7-4.4 2.7-11.8 4.8-23.8 7.1-36.3zm-240.8-0.1c10.4 14.2 7 27.4-1.8 41 18.8 0 36.3 0.2 53.8-0.2 2.3-0.1 6-2.8 6.4-4.8 2.4-11.6 4-23.5 6-36-22.8 0-43 0-64.4 0zm128.5 40.6c-5.7-16.1-0.4-29.1 12.7-41-20.5 0-39-0.2-57.5 0.2-2.4 0-6.4 2.3-7 4.2-3.3 11.7-5.8 23.7-8.7 36.6 21.7 0 40.8 0 60.5 0zm-845.8-41c-20.5 0-38.7-0.1-56.8 0.2-2.3 0-5.7 1.7-6.6 3.6-5.3 11.6-8.5 23.8-7.2 37 19.4 0 38.2 0 57.6 0-5.1-16.1-0.2-28.7 13-40.8zm32.2 41.4c18.9 0 36.1 0.1 53.4-0.1 2 0 5.1-1.6 5.8-3.2 4.9-12 6.8-24.4 4.5-37.4-20.5 0-40.3 0-60.8 0 8.9 14.1 6.2 26.8-2.9 40.7zm976.6 50.5c2.6-13.5 5.2-26.9 7.9-40.8-18.8 0-36.7 0-55.4 0-2.6 13.5-5.2 26.8-7.9 40.8 19 0 36.8 0 55.4 0zm-470.2-41.1c-18 0-34.3-0.1-50.6 0.2-1.9 0-5.2 1.9-5.5 3.4-2.7 12.3-4.8 24.7-7.2 37.5 19.1 0 36.9 0 55.2 0 2.6-13.6 5.2-26.7 8.1-41.1zm90.8-111.8c17.7 0 34 0.2 50.3-0.2 2 0 5.2-2.5 5.7-4.3 2.8-12 5-24.2 7.5-37-17.3 0-33.6-0.2-50 0.2-2.1 0.1-5.5 2.8-6 4.9-2.8 11.5-4.9 23.2-7.5 36.4zm-386.2 15.5c-15.4 0-30-0.1-44.7 0.1-1.9 0-4.8 1.1-5.4 2.5-4.9 10.6-9.3 21.5-14.2 32.9 22.8 0 44.2 0 66 0-0.5-11.7-1.1-22.8-1.7-35.5zm-140.6 35.4c18 0 34.9 0 52.6 0-0.6-6.2-0.9-11.7-1.6-17.2-2.3-18.2-2.4-18.2-21.4-18.2-11.8 0-23.5 0-35.9 0 2.3 12.9 4.3 23.9 6.3 35.4zm238.1-35.3c-18.6 0-35.4-0.1-52.2 0.1-1.5 0-3.7 1.5-4.3 2.8-5.3 10.6-10.4 21.4-15.9 33 16.9 0 32.2 0.1 47.6-0.1 2.1 0 5.2-1.1 6.2-2.7 6.1-10.4 11.8-21 18.6-33.1z"/><path  d="m598 136.5c-7.7 13.9-14.5 26.4-21.7 38.7-0.8 1.5-3.5 2.7-5.4 2.7-58.4 0.1-116.9 0.1-176.5 0.1-2.4-13.7-4.8-27-7.2-40.9 17.7 0 34.5 0 51.9 0 1.2 9.5 2.3 18.5 3.4 27.5 0.8 0.2 1.6 0.3 2.3 0.5 3.3-7.5 6.3-15.1 10-22.4 1.3-2.5 4.5-5.8 6.9-5.9 21.9-0.5 43.8-0.3 66.2-0.3 0.6 9.9 1.1 18.9 1.7 27.9 0.8 0.1 1.7 0.2 2.5 0.3 3.9-7.7 7.5-15.5 11.8-22.9 1.3-2.3 4.3-5 6.5-5.1 15.3-0.4 30.6-0.2 47.6-0.2z"/><path  d="m224 87c0 3.4 0.2 6.9 0 10.2-1.3 26-5.4 29.8-31.1 29.8q-66.6 0-133.2 0c-3.4 0-6.8 0-11.9 0 2.5-13.3 4.7-25.7 7.4-38 0.3-1.6 3.6-3.6 5.5-3.6 53.8 0 107.6 0.3 161.4 0.5 0.2-0.1 0.5 0.2 1.9 1.1z"/><path  d="m881.9 228.9c2.9-14.5 5.5-27.6 8.2-41.1 53.9 0 107.4 0 161 0-11.1 33.8-77.1 68.2-108.9 24.2-0.5 0.3-1.3 0.5-1.4 0.9-3.8 15.9-3.8 15.9-20.1 15.9-12.5 0.1-25 0.1-38.8 0.1z"/><path  d="m37.6 178c2.5-12.9 4.5-24.3 7.2-35.5 0.6-2.4 4.1-5.7 6.2-5.8 52.6-0.3 105.1-0.3 159.3-0.3-11.7 18.7-27.3 30.5-46.7 37-8.2 2.8-17.2 4.1-25.8 4.2-29.9 0.5-59.8 0.2-89.7 0.2-3.1 0.2-6.2 0.2-10.5 0.2z"/><path  d="m1231.3 187.9c-2.8 14-5.4 27.1-8.1 40.4-18.3 0-36.1 0-54.5 0 1-6 1.9-11.5 3.1-19-22 20.9-45.7 29.9-73.5 18.1-16.8-7.1-24.2-21.6-27.4-39.6 53.4 0.1 106.2 0.1 160.4 0.1z"/><path  d="m220.1 74.9c-53.9 0-107.7 0-162.3 0 2.7-13.8 5.2-26.9 8-40.9 13.5 0 26.6-0.2 39.8 0 23.5 0.3 47.2-0.5 70.5 1.7 22.9 2.2 41.1 19.9 44 39.2z"/><path  d="m1061.1 126.6c-53.5 0-105.6 0-158.9 0 2.7-13.9 5.4-27.2 8.1-41 18.3 0 36.1 0 54.9 0-1.3 7.7-2.5 14.9-4.1 24.4 23-20.7 47.3-29.5 75.2-16.5 13.5 6.3 21.2 17.9 24.8 33.1z"/><path  d="m660.3 136.5c0 3.1 0 5.5 0 8.1 0.8 0.4 1.6 1 2.4 1 12.9 0.1 25.8 0.2 38.7 0.1 7.5 0 7.5-0.1 9-8.8 17.4 0 34.8 0 54.9 0-2.3 10.8-4 21-6.9 30.8-0.5 1.6-5.7 2.7-8.7 2.7-28.9 0.2-57.8 0.1-86.7 0.2-4.1 0-9.1-1.5-10.2 5.2-0.1 0.9-3 1.9-4.6 2-16 0.1-31.9 0.1-48.6 0.1-1.2-13.7 1.8-26 6.8-37.7 0.8-1.7 3.8-3.5 5.8-3.6 15.9-0.2 31.9-0.1 48.1-0.1z"/><path  d="m368.2 187.8c-18.8 28.4-44.6 41.9-76.3 44.5-23.8 2-46.9-0.5-64.4-19-6.4-6.7-10.2-15.8-16.3-25.6 53.8 0.1 104.5 0.1 157 0.1z"/><path  d="m1190.4 109.7c6.5-18.7 6.5-18.7 26-18.7 10.9 0 21.8 0 33.5 0-1.2 6.2-2 11.1-3 15.9-4.3 20.3-4.3 20.4-24.8 20.3q-64.6-0.2-129.3-0.3c-2.4 0-4.9 0-9.1 0 12.7-20.1 28.9-32.8 50.7-37.5 22.2-4.7 42-1.5 56 20.3z"/><path  d="m600.3 187.3c17.3 0 33.3-0.1 49.3 0.1 2.2 0 4.7 1.3 6.4 2.8 10.5 9.8 26.8 10.4 38.8 2 3.7-2.6 8.8-4.5 13.3-4.7 14.4-0.6 28.8-0.2 44.4-0.2-6.1 13.7-15.1 23.3-27 30.2-31 18-63.4 21-96.5 7-15.7-6.6-24.8-19.3-28.7-37.2z"/><path  d="m376.5 126.8c-50.2 0-98.8 0-150.2 0 6.4-6.5 11-12.1 16.4-16.8 27.5-23.7 74.9-30.2 106.3-14.8 13.2 6.6 22.5 16.5 27.5 31.6z"/><path  d="m761.7 127c-18.3 0-35.9 0.2-53.4-0.2-3.4-0.1-6.6-3.7-10.1-4.3-5.8-0.9-12.7-2.6-17.5-0.4-21.3 9.7-43.4 2.3-64.9 5.3-0.6-0.8-1.1-1.7-1.7-2.5 6.3-6.1 11.8-13.3 18.9-18.2 32-22.4 66.7-26 102.7-10.9 13.2 5.5 22.2 15.8 26 31.2z"/><path  d="m840 91.1c-1 6.8-1.8 12.6-2.7 18.4 9.7-6 18.5-12.8 28.4-17.4 9.9-4.6 21-6.4 32.9-1.6-2.1 11-3.9 22-6.5 32.7-0.4 1.6-4.1 3.5-6.3 3.6-35.5 0.2-71 0.2-107.6 0.2 2.1-11.2 3.9-21.7 6.1-32.2 0.3-1.5 3-3.5 4.6-3.6 16.8-0.2 33.7-0.1 51.1-0.1z"/><path  d="m1315.4 112c12.3-12.2 24.1-20.7 39.3-23 2.2-0.3 4.3-0.9 6.5-1 14.7-1 16.6 1.1 13.4 15.2-1.8 7.8-1.6 18.2-6.6 22.5-4.6 3.9-15 1.3-22.8 1.3-29.2 0.1-58.4 0-88.8 0 2.3-12.2 4.5-23.6 6.8-35.5 18.4 0 36.2 0 55 0-0.9 6.2-1.7 12.1-2.8 20.5z"/><path  d="m492.8 187.8c25.4 0 50 0 76.5 0-7.6 13.5-14.8 26.3-22.2 39-0.6 1.1-2.5 1.9-3.9 2-15.3 0.1-30.6 0.1-46.4 0.1-1.3-14.2-2.6-27.4-4-41.1z"/><path  d="m396.1 187.8c25.5 0 50.2 0 76 0-6.2 13-12 25.7-18.3 38-0.9 1.7-4.6 2.8-7.1 2.9-12.2 0.3-24.5 0.4-36.7-0.1-2.6-0.1-7-2.5-7.4-4.5-2.7-11.6-4.4-23.6-6.5-36.3z"/><path  d="m823.2 177.5c-18.8 0-36.6 0-55.2 0 2.7-13.7 5.3-26.8 8-40.5 26.9 0 53.5 0 80.1 0-19.3 6.7-28.3 21.6-32.9 40.5z"/><path  d="m1334 137.1c-19.2 6.9-27.9 21.8-32.4 40.3-18.4 0-36.4 0-55.3 0 2.7-13.6 5.3-26.7 7.9-40.3 26.8 0 53.3 0 79.8 0z"/><path  d="m94.1 187.8c-2.8 14.1-5.4 27.2-8.1 40.4-19.6 0-38.6 0-58.4 0 2.7-13.8 5.3-26.9 8-40.4 19.5 0 38.5 0 58.5 0z"/><path  d="m900.2 137c21.7 0 42.6 0 63.9 0-14.2 17.9-15 20.5-11.9 40.6-19.8 0-39.5 0-60.1 0 2.7-13.9 5.4-27.3 8.1-40.6z"/><path  d="m1241 137c-2.4 12.6-4.4 24.5-7 36.4-0.4 1.9-3.7 4.3-5.7 4.4-17.8 0.3-35.6 0.2-54.8 0.2 10-13.8 12.3-27.1 2.2-40.9 22.1-0.1 43.4-0.1 65.3-0.1z"/><path  d="m1000.2 136.9c21.4 0 41.6 0 64.5 0-2 12.5-3.6 24.3-6 36-0.4 2-4.2 4.8-6.4 4.8-17.5 0.4-35 0.2-53.8 0.2 8.7-13.6 12-26.8 1.7-41z"/><path  d="m1128.7 177.5c-19.7 0-38.7 0-60.5 0 3-12.9 5.5-24.8 8.7-36.6 0.5-2 4.5-4.2 7-4.2 18.5-0.4 37-0.2 57.5-0.2-13.1 11.9-18.5 24.9-12.7 41z"/><path  d="m282.9 136.5c-13.2 12.1-18.1 24.7-13.1 40.8-19.3 0-38.1 0-57.6 0-1.3-13.2 1.9-25.4 7.2-37 0.9-1.9 4.3-3.5 6.6-3.6 18.2-0.3 36.4-0.2 56.9-0.2z"/><path  d="m315.1 177.9c9.1-13.9 11.7-26.6 2.8-40.7 20.5 0 40.3 0 60.8 0 2.4 13 0.4 25.4-4.5 37.4-0.7 1.6-3.8 3.2-5.8 3.2-17.2 0.2-34.4 0.1-53.3 0.1z"/><path  d="m1291.7 228.4c-18.6 0-36.4 0-55.3 0 2.7-13.9 5.3-27.2 7.9-40.8 18.7 0 36.5 0 55.4 0-2.8 14-5.4 27.3-8 40.8z"/><path  d="m821.5 187.3c-2.9 14.4-5.5 27.5-8.1 41-18.2 0-36 0-55.2 0 2.4-12.8 4.5-25.2 7.2-37.5 0.3-1.5 3.6-3.3 5.5-3.4 16.3-0.2 32.6-0.1 50.6-0.1z"/><path  d="m912.3 75.5c2.6-13.2 4.7-24.9 7.5-36.4 0.5-2.1 3.9-4.8 6-4.9 16.3-0.4 32.7-0.2 50-0.2-2.5 12.8-4.7 24.9-7.5 37-0.4 1.8-3.7 4.3-5.7 4.3-16.3 0.3-32.6 0.2-50.3 0.2z"/><path  d="m526.1 91c0.6 12.7 1.1 23.8 1.7 35.6-21.8 0-43.2 0-66 0 4.9-11.5 9.3-22.3 14.2-32.9 0.6-1.4 3.6-2.5 5.4-2.5 14.7-0.3 29.4-0.2 44.7-0.2z"/><path  d="m385.5 126.4c-2-11.5-4-22.5-6.3-35.4 12.4 0 24.1 0 35.9 0 19.1 0 19.1 0 21.4 18.2 0.7 5.5 1 11 1.6 17.2-17.8 0-34.6 0-52.6 0z"/><path  d="m623.6 91.1c-6.8 12.2-12.5 22.8-18.7 33.1-1 1.6-4.1 2.7-6.2 2.7-15.3 0.2-30.7 0.1-47.6 0.1 5.5-11.6 10.6-22.4 15.9-33 0.7-1.4 2.8-2.8 4.3-2.8 16.8-0.2 33.6-0.1 52.3-0.1z"/></svg>