<?xml version="1.0" encoding="utf-8"?>
<!-- Generator: Adobe Illustrator 28.3.0, SVG Export Plug-In . SVG Version: 6.00 Build 0)  -->
<svg version="1.1" id="Layer_1" xmlns="http://www.w3.org/2000/svg" xmlns:xlink="http://www.w3.org/1999/xlink" x="0px" y="0px"
	 viewBox="0 0 1920 1080" style="enable-background:new 0 0 1920 1080;" xml:space="preserve">
<style type="text/css">
	.st0{fill:#FFFFFF;}
</style>
<g>
	<path class="st0" d="M840,542.5c-17,0-32.3-0.2-47.6,0.2c-2.3,0.1-5.2,2.8-6.5,5.1c-4.3,7.5-7.9,15.3-11.8,22.9
		c-0.8-0.1-1.7-0.2-2.5-0.3c-0.5-9-1.1-18.1-1.7-27.9c-22.4,0-44.3-0.2-66.2,0.3c-2.4,0-5.6,3.3-6.9,5.9c-3.8,7.2-6.7,14.9-10,22.4
		c-0.8-0.2-1.6-0.3-2.3-0.5c-1.1-9-2.2-18-3.4-27.5c-17.4,0-34.2,0-51.9,0c2.5,13.9,4.8,27.2,7.2,40.9c59.6,0,118,0,176.5-0.1
		c1.8,0,4.5-1.2,5.4-2.7C825.5,568.8,832.3,556.3,840,542.5z M466,493c-1.4-0.9-1.6-1.2-1.9-1.2c-53.8-0.2-107.6-0.5-161.4-0.5
		c-1.9,0-5.1,2-5.5,3.6c-2.7,12.3-4.9,24.7-7.4,38c5,0,8.5,0,11.9,0c44.4,0,88.8,0,133.2,0c25.7,0,29.7-3.8,31.1-29.8
		C466.1,499.8,466,496.4,466,493z M1123.9,634.9c13.8,0,26.3,0,38.8,0c16.3,0,16.3,0,20.1-15.9c0.1-0.4,0.9-0.6,1.4-0.9
		c31.8,43.9,97.9,9.6,108.9-24.2c-53.6,0-107.1,0-161,0C1129.4,607.3,1126.8,620.4,1123.9,634.9z M279.6,584c4.2,0,7.3,0,10.4,0
		c29.9,0,59.8,0.3,89.7-0.2c8.7-0.1,17.7-1.5,25.8-4.2c19.4-6.6,35.1-18.3,46.7-37c-54.2,0-106.7-0.1-159.3,0.3
		c-2.2,0-5.6,3.4-6.2,5.8C284.1,559.7,282.2,571.1,279.6,584z M1473.3,593.9c-54.2,0-107.1,0-160.5,0c3.2,17.9,10.7,32.4,27.4,39.6
		c27.8,11.8,51.5,2.8,73.5-18.1c-1.2,7.5-2.1,13-3.1,19c18.4,0,36.2,0,54.5,0C1467.9,621,1470.5,607.9,1473.3,593.9z M462.1,480.9
		c-2.9-19.3-21.1-37-44-39.1c-23.4-2.2-47-1.4-70.5-1.7c-13.1-0.2-26.2,0-39.8,0c-2.7,13.9-5.3,27-8,40.9
		C354.4,480.9,408.2,480.9,462.1,480.9z M1303.1,532.6c-3.6-15.2-11.3-26.8-24.8-33.1c-27.9-13-52.2-4.2-75.2,16.5
		c1.6-9.5,2.8-16.7,4.1-24.4c-18.8,0-36.6,0-54.9,0c-2.7,13.7-5.3,27.1-8.1,41C1197.5,532.6,1249.7,532.6,1303.1,532.6z
		 M902.3,542.5c-16.2,0-32.2-0.1-48.2,0.2c-2,0-5.1,1.8-5.8,3.6c-5.1,11.8-8.1,24-6.8,37.7c16.6,0,32.6,0.1,48.6-0.1
		c1.6,0,4.4-1.1,4.6-2c1-6.7,6.1-5.2,10.2-5.2c28.9-0.1,57.8,0,86.7-0.2c3,0,8.3-1.1,8.7-2.7c2.9-9.9,4.6-20.1,6.9-30.8
		c-20,0-37.5,0-54.9,0c-1.5,8.7-1.5,8.8-9,8.8c-12.9,0-25.8,0-38.7-0.1c-0.8,0-1.6-0.7-2.4-1C902.3,548,902.3,545.6,902.3,542.5z
		 M610.2,593.8c-52.5,0-103.2,0-157,0c6.1,9.8,9.9,18.8,16.3,25.6c17.5,18.5,40.7,20.9,64.4,19C565.6,635.7,591.4,622.2,610.2,593.8
		z M1432.4,515.7c-14-21.8-33.8-25-55.9-20.2c-21.9,4.7-38,17.4-50.7,37.5c4.2,0,6.6,0,9.1,0c43.1,0.1,86.2,0.2,129.3,0.3
		c20.5,0,20.5,0,24.8-20.3c1-4.8,1.9-9.7,3-15.9c-11.7,0-22.6,0-33.5,0C1438.9,497,1438.9,497,1432.4,515.7z M842.3,593.3
		c3.9,17.9,13,30.6,28.7,37.3c33.2,14,65.6,11,96.5-7c11.8-6.9,20.8-16.5,27-30.2c-15.7,0-30.1-0.4-44.4,0.2
		c-4.5,0.2-9.6,2.1-13.3,4.7c-12,8.4-28.3,7.8-38.8-2c-1.6-1.5-4.2-2.8-6.4-2.8C875.6,593.2,859.6,593.3,842.3,593.3z M618.5,532.8
		c-5-15.1-14.3-25-27.5-31.5c-31.4-15.5-78.8-9-106.3,14.8c-5.4,4.7-10.1,10.2-16.4,16.8C519.6,532.8,568.3,532.8,618.5,532.8z
		 M1003.7,533c-3.8-15.3-12.9-25.6-26-31.1c-36-15.1-70.6-11.5-102.7,10.9c-7.1,5-12.7,12.1-18.9,18.2c0.6,0.8,1.1,1.7,1.7,2.5
		c21.5-3.1,43.6,4.3,64.9-5.3c4.8-2.2,11.7-0.5,17.5,0.4c3.5,0.5,6.7,4.2,10.1,4.3C967.9,533.2,985.4,533,1003.7,533z M1082,497.1
		c-17.4,0-34.3-0.1-51.2,0.2c-1.6,0-4.2,2.1-4.6,3.6c-2.3,10.5-4.1,21-6.1,32.2c36.7,0,72.2,0.1,107.6-0.2c2.2,0,5.9-1.9,6.3-3.6
		c2.6-10.8,4.4-21.7,6.5-32.7c-11.9-4.8-22.9-3-32.9,1.6c-9.9,4.5-18.7,11.3-28.4,17.4C1080.1,509.7,1081,503.9,1082,497.1z
		 M1557.4,518c1.1-8.4,1.9-14.2,2.7-20.5c-18.8,0-36.6,0-55,0c-2.3,11.9-4.5,23.3-6.8,35.5c30.4,0,59.6,0,88.8,0
		c7.8,0,18.2,2.6,22.8-1.3c5-4.3,4.8-14.7,6.6-22.5c3.2-14.1,1.3-16.2-13.4-15.2c-2.2,0.1-4.3,0.7-6.5,1
		C1581.5,497.3,1569.7,505.7,1557.4,518z M734.8,593.8c1.4,13.7,2.7,26.9,4.1,41.1c15.8,0,31.1,0,46.4-0.1c1.3,0,3.3-0.9,3.9-2
		c7.4-12.7,14.6-25.6,22.2-39C784.9,593.8,760.2,593.8,734.8,593.8z M638.1,593.8c2.1,12.6,3.9,24.6,6.5,36.4c0.4,2,4.8,4.4,7.4,4.5
		c12.2,0.5,24.5,0.4,36.7,0.1c2.4-0.1,6.2-1.1,7.1-2.9c6.4-12.4,12.1-25,18.3-38C688.3,593.8,663.6,593.8,638.1,593.8z
		 M1065.2,583.5c4.6-18.9,13.6-33.8,32.8-40.5c-26.6,0-53.2,0-80.1,0c-2.7,13.6-5.3,26.8-8,40.5
		C1028.6,583.5,1046.4,583.5,1065.2,583.5z M1576,543.1c-26.5,0-53.1,0-79.8,0c-2.7,13.6-5.3,26.7-7.9,40.3c18.9,0,36.9,0,55.3,0
		C1548.1,564.8,1556.8,550,1576,543.1z M336.1,593.8c-20,0-39,0-58.4,0c-2.7,13.5-5.3,26.6-8,40.4c19.8,0,38.7,0,58.4,0
		C330.7,621,333.3,607.9,336.1,593.8z M1142.2,543c-2.7,13.4-5.3,26.7-8.1,40.6c20.6,0,40.3,0,60.1,0c-3.1-20-2.3-22.7,11.9-40.6
		C1184.7,543,1163.8,543,1142.2,543z M1483,543c-21.9,0-43.2,0-65.4,0c10,13.9,7.8,27.1-2.2,40.9c19.2,0,37,0.1,54.8-0.2
		c2,0,5.3-2.5,5.7-4.4C1478.6,567.5,1480.7,555.5,1483,543z M1242.2,542.9c10.4,14.2,7,27.4-1.8,41c18.8,0,36.3,0.2,53.8-0.2
		c2.3-0.1,6-2.8,6.4-4.8c2.4-11.6,4-23.5,6-36C1283.8,542.9,1263.6,542.9,1242.2,542.9z M1370.7,583.5c-5.7-16.1-0.4-29.1,12.7-41
		c-20.5,0-39-0.2-57.5,0.2c-2.4,0-6.4,2.3-7,4.2c-3.3,11.7-5.8,23.7-8.7,36.6C1331.9,583.5,1351,583.5,1370.7,583.5z M524.9,542.5
		c-20.5,0-38.7-0.1-56.8,0.2c-2.3,0-5.7,1.7-6.6,3.6c-5.3,11.6-8.5,23.8-7.2,37c19.4,0,38.2,0,57.6,0
		C506.8,567.2,511.7,554.6,524.9,542.5z M557.1,583.9c18.9,0,36.1,0.1,53.4-0.1c2,0,5.1-1.6,5.8-3.2c4.9-12,6.8-24.4,4.5-37.4
		c-20.5,0-40.3,0-60.8,0C568.9,557.3,566.2,570,557.1,583.9z M1533.7,634.4c2.6-13.5,5.2-26.9,7.9-40.8c-18.8,0-36.7,0-55.4,0
		c-2.6,13.5-5.2,26.8-7.9,40.8C1497.3,634.4,1515.1,634.4,1533.7,634.4z M1063.5,593.3c-18,0-34.3-0.1-50.6,0.2
		c-1.9,0-5.2,1.9-5.5,3.4c-2.7,12.3-4.8,24.7-7.2,37.5c19.1,0,36.9,0,55.2,0C1058,620.8,1060.6,607.7,1063.5,593.3z M1154.3,481.5
		c17.7,0,34,0.2,50.3-0.2c2,0,5.2-2.5,5.7-4.3c2.8-12,5-24.2,7.5-37c-17.3,0-33.6-0.2-50,0.2c-2.1,0.1-5.5,2.8-6,4.9
		C1159,456.6,1156.9,468.3,1154.3,481.5z M768.1,497c-15.4,0-30-0.1-44.7,0.1c-1.9,0-4.8,1.1-5.4,2.5c-4.9,10.6-9.3,21.5-14.2,32.9
		c22.8,0,44.2,0,66,0C769.3,520.8,768.7,509.7,768.1,497z M627.5,532.4c18,0,34.9,0,52.6,0c-0.6-6.2-0.9-11.7-1.6-17.2
		c-2.3-18.2-2.4-18.2-21.4-18.2c-11.8,0-23.5,0-35.9,0C623.5,509.9,625.5,520.9,627.5,532.4z M865.6,497.1
		c-18.6,0-35.4-0.1-52.2,0.1c-1.5,0-3.7,1.5-4.3,2.8c-5.3,10.6-10.4,21.4-15.9,33c16.9,0,32.2,0.1,47.6-0.1c2.1,0,5.2-1.1,6.2-2.7
		C853.1,519.8,858.8,509.2,865.6,497.1z"/>
	<path d="M840,542.5c-7.7,13.9-14.5,26.4-21.7,38.7c-0.8,1.5-3.5,2.7-5.4,2.7c-58.4,0.1-116.9,0.1-176.5,0.1
		c-2.4-13.7-4.8-27-7.2-40.9c17.7,0,34.5,0,51.9,0c1.2,9.5,2.3,18.5,3.4,27.5c0.8,0.2,1.6,0.3,2.3,0.5c3.3-7.5,6.3-15.1,10-22.4
		c1.3-2.5,4.5-5.8,6.9-5.9c21.9-0.5,43.8-0.3,66.2-0.3c0.6,9.9,1.1,18.9,1.7,27.9c0.8,0.1,1.7,0.2,2.5,0.3
		c3.9-7.7,7.5-15.5,11.8-22.9c1.3-2.3,4.3-5,6.5-5.1C807.7,542.3,823,542.5,840,542.5z"/>
	<path d="M466,493c0,3.4,0.2,6.9,0,10.2c-1.3,26-5.4,29.8-31.1,29.8c-44.4,0-88.8,0-133.2,0c-3.4,0-6.8,0-11.9,0
		c2.5-13.3,4.7-25.7,7.4-38c0.3-1.6,3.6-3.6,5.5-3.6c53.8,0,107.6,0.3,161.4,0.5C464.3,491.8,464.6,492.1,466,493z"/>
	<path d="M1123.9,634.9c2.9-14.5,5.5-27.6,8.2-41.1c53.9,0,107.4,0,161,0c-11.1,33.8-77.1,68.2-108.9,24.2c-0.5,0.3-1.3,0.5-1.4,0.9
		c-3.8,15.9-3.8,15.9-20.1,15.9C1150.2,634.9,1137.7,634.9,1123.9,634.9z"/>
	<path d="M279.6,584c2.5-12.9,4.5-24.3,7.2-35.5c0.6-2.4,4.1-5.7,6.2-5.8c52.6-0.3,105.1-0.3,159.3-0.3
		c-11.7,18.7-27.3,30.5-46.7,37c-8.2,2.8-17.2,4.1-25.8,4.2c-29.9,0.5-59.8,0.2-89.7,0.2C287,584,283.9,584,279.6,584z"/>
	<path d="M1473.3,593.9c-2.8,14-5.4,27.1-8.1,40.4c-18.3,0-36.1,0-54.5,0c1-6,1.9-11.5,3.1-19c-22,20.9-45.7,29.9-73.5,18.1
		c-16.8-7.1-24.2-21.6-27.4-39.6C1366.3,593.9,1419.1,593.9,1473.3,593.9z"/>
	<path d="M462.1,480.9c-53.9,0-107.7,0-162.3,0c2.7-13.8,5.2-26.9,8-40.9c13.5,0,26.6-0.2,39.8,0c23.5,0.3,47.2-0.5,70.5,1.7
		C441,443.9,459.2,461.6,462.1,480.9z"/>
	<path d="M1303.1,532.6c-53.5,0-105.6,0-158.9,0c2.7-13.9,5.4-27.2,8.1-41c18.3,0,36.1,0,54.9,0c-1.3,7.7-2.5,14.9-4.1,24.4
		c23-20.7,47.3-29.5,75.2-16.5C1291.8,505.8,1299.5,517.4,1303.1,532.6z"/>
	<path d="M902.3,542.5c0,3.1,0,5.5,0,8.1c0.8,0.4,1.6,1,2.4,1c12.9,0.1,25.8,0.2,38.7,0.1c7.5,0,7.5-0.1,9-8.8c17.4,0,34.8,0,54.9,0
		c-2.3,10.8-4,21-6.9,30.8c-0.5,1.6-5.7,2.7-8.7,2.7c-28.9,0.2-57.8,0.1-86.7,0.2c-4.1,0-9.1-1.5-10.2,5.2c-0.1,0.9-3,1.9-4.6,2
		c-16,0.1-31.9,0.1-48.6,0.1c-1.2-13.7,1.8-26,6.8-37.7c0.8-1.7,3.8-3.5,5.8-3.6C870.1,542.4,886.1,542.5,902.3,542.5z"/>
	<path d="M610.2,593.8c-18.8,28.4-44.6,41.9-76.3,44.5c-23.8,2-46.9-0.5-64.4-19c-6.4-6.7-10.2-15.8-16.3-25.6
		C507,593.8,557.7,593.8,610.2,593.8z"/>
	<path d="M1432.4,515.7c6.5-18.7,6.5-18.7,26-18.7c10.9,0,21.8,0,33.5,0c-1.2,6.2-2,11.1-3,15.9c-4.3,20.3-4.3,20.4-24.8,20.3
		c-43.1-0.1-86.2-0.2-129.3-0.3c-2.4,0-4.9,0-9.1,0c12.7-20.1,28.9-32.8,50.7-37.5C1398.6,490.7,1418.4,493.9,1432.4,515.7z"/>
	<path d="M842.3,593.3c17.3,0,33.3-0.1,49.3,0.1c2.2,0,4.7,1.3,6.4,2.8c10.5,9.8,26.8,10.4,38.8,2c3.7-2.6,8.8-4.5,13.3-4.7
		c14.4-0.6,28.8-0.2,44.4-0.2c-6.1,13.7-15.1,23.3-27,30.2c-31,18-63.4,21-96.5,7C855.3,623.9,846.2,611.2,842.3,593.3z"/>
	<path d="M618.5,532.8c-50.2,0-98.8,0-150.2,0c6.4-6.5,11-12.1,16.4-16.8c27.5-23.7,74.9-30.2,106.3-14.8
		C604.2,507.8,613.5,517.7,618.5,532.8z"/>
	<path d="M1003.7,533c-18.3,0-35.9,0.2-53.4-0.2c-3.4-0.1-6.6-3.7-10.1-4.3c-5.8-0.9-12.7-2.6-17.5-0.4c-21.3,9.7-43.4,2.3-64.9,5.3
		c-0.6-0.8-1.1-1.7-1.7-2.5c6.3-6.1,11.8-13.3,18.9-18.2c32-22.4,66.7-26,102.7-10.9C990.9,507.3,999.9,517.6,1003.7,533z"/>
	<path d="M1082,497.1c-1,6.8-1.8,12.6-2.7,18.4c9.7-6,18.5-12.8,28.4-17.4c9.9-4.6,21-6.4,32.9-1.6c-2.1,11-3.9,22-6.5,32.7
		c-0.4,1.6-4.1,3.5-6.3,3.6c-35.5,0.2-71,0.2-107.6,0.2c2.1-11.2,3.9-21.7,6.1-32.2c0.3-1.5,3-3.5,4.6-3.6
		C1047.7,497,1064.6,497.1,1082,497.1z"/>
	<path d="M1557.4,518c12.3-12.2,24.1-20.7,39.3-23c2.2-0.3,4.3-0.9,6.5-1c14.7-1,16.6,1.1,13.4,15.2c-1.8,7.8-1.6,18.2-6.6,22.5
		c-4.6,3.9-15,1.3-22.8,1.3c-29.2,0.1-58.4,0-88.8,0c2.3-12.2,4.5-23.6,6.8-35.5c18.4,0,36.2,0,55,0
		C1559.3,503.7,1558.5,509.6,1557.4,518z"/>
	<path d="M734.8,593.8c25.4,0,50,0,76.5,0c-7.6,13.5-14.8,26.3-22.2,39c-0.6,1.1-2.5,1.9-3.9,2c-15.3,0.1-30.6,0.1-46.4,0.1
		C737.5,620.7,736.2,607.5,734.8,593.8z"/>
	<path d="M638.1,593.8c25.5,0,50.2,0,76,0c-6.2,13-12,25.7-18.3,38c-0.9,1.7-4.6,2.8-7.1,2.9c-12.2,0.3-24.5,0.4-36.7-0.1
		c-2.6-0.1-7-2.5-7.4-4.5C641.9,618.5,640.2,606.5,638.1,593.8z"/>
	<path d="M1065.2,583.5c-18.8,0-36.6,0-55.2,0c2.7-13.7,5.3-26.8,8-40.5c26.9,0,53.5,0,80.1,0
		C1078.8,549.7,1069.8,564.6,1065.2,583.5z"/>
	<path d="M1576,543.1c-19.2,6.9-27.9,21.8-32.4,40.3c-18.4,0-36.4,0-55.3,0c2.7-13.6,5.3-26.7,7.9-40.3
		C1523,543.1,1549.5,543.1,1576,543.1z"/>
	<path d="M336.1,593.8c-2.8,14.1-5.4,27.2-8.1,40.4c-19.6,0-38.6,0-58.4,0c2.7-13.8,5.3-26.9,8-40.4
		C297.1,593.8,316.1,593.8,336.1,593.8z"/>
	<path d="M1142.2,543c21.7,0,42.6,0,63.9,0c-14.2,17.9-15,20.5-11.9,40.6c-19.8,0-39.5,0-60.1,0
		C1136.8,569.7,1139.5,556.3,1142.2,543z"/>
	<path d="M1483,543c-2.4,12.6-4.4,24.5-7,36.4c-0.4,1.9-3.7,4.3-5.7,4.4c-17.8,0.3-35.6,0.2-54.8,0.2c10-13.8,12.3-27.1,2.2-40.9
		C1439.8,543,1461.1,543,1483,543z"/>
	<path d="M1242.2,542.9c21.4,0,41.6,0,64.5,0c-2,12.5-3.6,24.3-6,36c-0.4,2-4.2,4.8-6.4,4.8c-17.5,0.4-35,0.2-53.8,0.2
		C1249.2,570.3,1252.5,557.1,1242.2,542.9z"/>
	<path d="M1370.7,583.5c-19.7,0-38.7,0-60.5,0c3-12.9,5.5-24.8,8.7-36.6c0.5-2,4.5-4.2,7-4.2c18.5-0.4,37-0.2,57.5-0.2
		C1370.3,554.4,1364.9,567.4,1370.7,583.5z"/>
	<path d="M524.9,542.5c-13.2,12.1-18.1,24.7-13.1,40.8c-19.3,0-38.1,0-57.6,0c-1.3-13.2,1.9-25.4,7.2-37c0.9-1.9,4.3-3.5,6.6-3.6
		C486.2,542.4,504.4,542.5,524.9,542.5z"/>
	<path d="M557.1,583.9c9.1-13.9,11.7-26.6,2.8-40.7c20.5,0,40.3,0,60.8,0c2.4,13,0.4,25.4-4.5,37.4c-0.7,1.6-3.8,3.2-5.8,3.2
		C593.2,584,576,583.9,557.1,583.9z"/>
	<path d="M1533.7,634.4c-18.6,0-36.4,0-55.3,0c2.7-13.9,5.3-27.2,7.9-40.8c18.7,0,36.5,0,55.4,0
		C1538.9,607.6,1536.3,620.9,1533.7,634.4z"/>
	<path d="M1063.5,593.3c-2.9,14.4-5.5,27.5-8.1,41c-18.2,0-36,0-55.2,0c2.4-12.8,4.5-25.2,7.2-37.5c0.3-1.5,3.6-3.3,5.5-3.4
		C1029.2,593.2,1045.5,593.3,1063.5,593.3z"/>
	<path d="M1154.3,481.5c2.6-13.2,4.7-24.9,7.5-36.4c0.5-2.1,3.9-4.8,6-4.9c16.3-0.4,32.7-0.2,50-0.2c-2.5,12.8-4.7,24.9-7.5,37
		c-0.4,1.8-3.7,4.3-5.7,4.3C1188.3,481.6,1172,481.5,1154.3,481.5z"/>
	<path d="M768.1,497c0.6,12.7,1.1,23.8,1.7,35.6c-21.8,0-43.2,0-66,0c4.9-11.5,9.3-22.3,14.2-32.9c0.6-1.4,3.6-2.5,5.4-2.5
		C738.1,496.9,752.8,497,768.1,497z"/>
	<path d="M627.5,532.4c-2-11.5-4-22.5-6.3-35.4c12.4,0,24.1,0,35.9,0c19.1,0,19.1,0,21.4,18.2c0.7,5.5,1,11,1.6,17.2
		C662.3,532.4,645.5,532.4,627.5,532.4z"/>
	<path d="M865.6,497.1c-6.8,12.2-12.5,22.8-18.7,33.1c-1,1.6-4.1,2.7-6.2,2.7c-15.3,0.2-30.7,0.1-47.6,0.1
		c5.5-11.6,10.6-22.4,15.9-33c0.7-1.4,2.8-2.8,4.3-2.8C830.1,497,846.9,497.1,865.6,497.1z"/>
</g>
</svg>
