<?xml version="1.0" encoding="utf-8"?>
<!-- Generator: Adobe Illustrator 28.3.0, SVG Export Plug-In . SVG Version: 6.00 Build 0)  -->
<svg version="1.1" id="Layer_1" xmlns="http://www.w3.org/2000/svg" xmlns:xlink="http://www.w3.org/1999/xlink" x="0px" y="0px"
	 viewBox="0 0 1920 1080" style="enable-background:new 0 0 1920 1080;" xml:space="preserve">
<style type="text/css">
	.st0{fill:#FFFFFF;}
</style>
<path class="st0" d="M1634.3,511.8c-2.1,0.1-4.2,0.1-6.3,0.2c-7.1-24-14-48-21.3-72c-8-26.4-25.5-40.5-48.9-40.1
	c-22.3,0.4-38.8,14.4-46.9,39.9c-1.5,4.7-2.6,9.6-4,14.4c-9.7,33.1-19.5,66.2-30.9,104.7c-4-11.8-6.1-17.8-8-23.7
	c-7.8-24.1-23.4-34.2-44.8-28.7c-20.5,5.3-29.4,23.2-23,47.8c5.4,20.7,12,41,17.6,61.6c5,18.5,15.7,31,35.8,30.9
	c20-0.1,30.6-12.6,35.7-31.1c8.2-29.5,17-58.9,25.7-88.2c1.2-4.1,3.9-7.8,8.6-17c4.4,11.5,7.2,17.6,9.1,23.9
	c6.9,23.2,13.4,46.5,20.3,69.7c8.5,28.2,26.1,44.4,47.9,44.2c24.5-0.2,42.3-15.2,50.4-44.3c15.8-56.9,30.5-114,46.2-170.9
	c4.7-16.9,11.1-33.3,17.5-52.1c5,4.7,7.3,5.8,7.7,7.5c12.3,42.3,23.9,84.7,36.6,126.8c10.2,33.9,19.8,68.3,33.2,101
	c9.9,24.1,46.5,35.9,68,30.1c50.9-13.7,58.1-60.6,46.4-98c-8.1-25.8-15.8-51.7-23.3-77.6c-17.8-61.4-35-122.9-53-184.2
	c-10.6-36-31.4-51.8-65.9-51.5c-32.2,0.2-54.4,17.9-64,51.3c-12.9,45-25.5,90.1-38.7,135.1C1653.3,451.6,1643.6,481.6,1634.3,511.8z
	 M142.6,752.9c-1.4-0.2-2.9-0.3-4.3-0.5c-18.7-69.4-37.5-138.7-56.2-208.1c-9.3-34.3-13.6-37.7-48.6-36.8C4.7,508.3,0.2,514,8,541.1
	C32.8,628,57.8,714.9,82.8,801.8c8.8,30.6,16.3,36.3,48.7,36.9c6.4,0.1,12.9,0.1,19.4-0.1c31.1-0.7,38.7-6.4,47.3-35.8
	c12.8-43.7,25.5-87.5,38.1-131.2c12.8-44.4,25.7-88.9,38.2-133.4c6.3-22.7,1.8-28.7-21-30.3c-40-2.7-44.7,0.7-54.9,39.2
	c-1.5,5.5-3.1,11-4.5,16.5C176.8,626.7,159.7,689.8,142.6,752.9z M569.8,677.4c-34,4.2-66.4,5.1-97.2,12.7
	c-32,8-46.7,34.3-47.2,70.8c-0.5,34.3,14.6,60.4,44.5,71c49.8,17.6,100.1,15.7,148.6-4.4c8.9-3.7,18.8-17.4,19.1-26.8
	c1.5-48.4,1.5-96.9-1.1-145.3c-1.9-36.3-20.5-64.2-57.3-74.3c-42-11.5-84.2-5.6-124.4,8.5c-22,7.7-7.2,26.9-5.6,40.8
	c1.5,13.5,11.3,13.1,22.7,10.7c19.5-4.2,39.3-8.3,59-9.1C563,630.7,574.9,646.6,569.8,677.4z M1043.2,679.7
	c-27.1,1.5-52.9,1.1-78.2,4.7c-41,5.8-62.4,30-65.4,69.6c-3.2,41.3,13.4,69,51.5,80.6c47.3,14.3,94.9,12.1,140.6-6.9
	c8.6-3.6,18.9-15.9,19.2-24.4c1.4-49.8,1.7-99.8-0.9-149.6c-2.1-39.2-26.1-66.3-63-74.3c-40.1-8.7-80.1-3.2-118.3,9.8
	c-22.9,7.8-7.4,26.8-6.1,40.6c1.2,13.1,10.4,14,22.3,11.3c18.7-4.3,37.8-8.4,56.9-9.3C1036.1,630.3,1047.5,644.3,1043.2,679.7z
	 M777,573.6c-0.2,0.8-0.3,1.7-0.5,2.5c-2.9,0-5.7-0.1-8.6,0c-47.4,1.1-78.8,25.3-85,65.5c-6.1,39.4,16.1,70.3,61.2,85.4
	c11.5,3.8,23.2,7.1,34.5,11.7c12.8,5.2,22.4,13.9,19.1,29.3c-3.5,16.1-16.9,19-30.1,17.5c-19.8-2.2-39.3-7.8-59.1-9.6
	c-7.2-0.7-20.9,4.3-21.4,8.1c-1.9,14.5-18,34.9,4.1,43.3c42.5,16.2,86.9,24.2,131.8,6.2c30.8-12.3,44.5-35.9,46.6-67.9
	c2.2-34-12.8-57.8-43.2-71.8c-18.1-8.4-37.7-13.6-55.4-22.7c-7.5-3.8-11.7-13.7-17.5-20.9c7.9-5.9,15.6-16.5,23.8-16.8
	c16.8-0.6,34.1,2.9,50.6,7.1c14.3,3.6,23.9,3.1,26.2-14c2.1-15.3,13.2-33.6-12.2-39.8C820.4,581.5,798.6,577.9,777,573.6z
	 M1194.2,644.2c0,30.6-0.2,61.2,0.1,91.8c0.2,14.9,0.3,30,2.5,44.7c5.5,36.8,28.1,57.2,65.4,57.6c19.8,0.2,39.7-3.3,59.6-5.2
	c18.8-1.8,28-9,24.3-30.6c-3.5-20.5-9.3-32.7-32.8-24.7c-2,0.7-4.3,0.4-6.4,0.6c-31.2,2.8-37.2-2.4-37.2-33.1
	c-0.1-67.7,0-135.4,0-203.1c0-30.5-3.7-34.1-34.5-34.7c-3.6-0.1-7.2,0-10.7,0.1c-25.6,1-29.9,5.2-30.2,30.3c-0.2,13.2,0,26.4,0,41.6
	c-15.7,0-27.9-1.2-39.7,0.3c-19.5,2.3-13.9,18.5-14.3,30.3c-0.3,8.3,0.1,22.6,3.9,24C1158.9,639.5,1175.2,640.8,1194.2,644.2z
	 M306.6,708.8c0,34.9-0.3,69.8,0.2,104.6c0.1,6.6,2.7,18.6,5.4,18.9c19.3,2.6,39.2,5,58.3,2.5c5-0.7,10.9-18.5,11.1-28.5
	c1-60.5,0.5-121,0.5-181.5c0-45.2-3-47.6-49.3-45.7c-18.5,0.8-27.1,7.5-26.5,27.2C307.4,640.4,306.6,674.6,306.6,708.8z
	 M1324.9,643.4c23.6-0.2,33.9-10.4,34-33.7c0-24.3-10.4-34.1-35.8-33.6c-23.9,0.4-32.9,10-32.4,34.4
	C1291.1,634.4,1300.7,643.6,1324.9,643.4z"/>
<path d="M1634.3,511.8c9.3-30.2,19-60.2,27.9-90.5c13.2-44.9,25.8-90.1,38.7-135.1c9.6-33.5,31.7-51.1,64-51.3
	c34.5-0.2,55.3,15.5,65.9,51.5c18,61.3,35.3,122.8,53,184.2c7.5,26,15.3,51.8,23.3,77.6c11.7,37.4,4.5,84.3-46.4,98
	c-21.5,5.8-58.1-6-68-30.1c-13.4-32.7-23-67.1-33.2-101c-12.7-42.1-24.3-84.6-36.6-126.8c-0.5-1.6-2.8-2.8-7.7-7.5
	c-6.4,18.9-12.9,35.3-17.5,52.1c-15.7,56.9-30.5,114.1-46.2,170.9c-8.1,29.2-25.9,44.1-50.4,44.3c-21.7,0.2-39.4-16-47.9-44.2
	c-7-23.2-13.4-46.5-20.3-69.7c-1.9-6.3-4.7-12.4-9.1-23.9c-4.7,9.2-7.3,12.9-8.6,17c-8.8,29.4-17.6,58.7-25.7,88.2
	c-5.1,18.5-15.7,31-35.7,31.1s-30.7-12.4-35.8-30.9c-5.6-20.6-12.3-41-17.6-61.6c-6.4-24.6,2.5-42.5,23-47.8
	c21.4-5.5,37,4.5,44.8,28.7c1.9,6,4,11.9,8,23.7c11.3-38.4,21.1-71.5,30.9-104.7c1.4-4.8,2.5-9.7,4-14.4c8-25.5,24.5-39.4,46.9-39.9
	c23.4-0.4,40.9,13.7,48.9,40.1c7.3,23.9,14.2,48,21.3,72C1630.1,511.9,1632.2,511.8,1634.3,511.8z"/>
<path d="M142.6,752.9c17.1-63.1,34.2-126.2,51.2-189.3c1.5-5.5,3.1-11,4.5-16.5c10.2-38.5,14.9-41.9,54.9-39.2
	c22.8,1.6,27.4,7.6,21,30.3c-12.5,44.5-25.4,89-38.2,133.4c-12.6,43.8-25.3,87.5-38.1,131.2c-8.6,29.4-16.1,35.1-47.3,35.8
	c-6.4,0.2-12.9,0.2-19.4,0.1c-32.3-0.6-39.9-6.3-48.7-36.9C57.8,714.9,32.8,628,8,541.1c-7.7-27.1-3.2-32.8,25.6-33.5
	c35-0.9,39.4,2.4,48.6,36.8c18.7,69.4,37.4,138.7,56.2,208.1C139.7,752.5,141.2,752.7,142.6,752.9z"/>
<path d="M569.8,677.4c5.1-30.8-6.7-46.7-38.8-45.4c-19.8,0.8-39.6,4.9-59,9.1c-11.4,2.5-21.2,2.8-22.7-10.7
	c-1.6-13.9-16.4-33.1,5.6-40.8c40.2-14.1,82.4-20.1,124.4-8.5c36.8,10.1,55.4,38.1,57.3,74.3c2.6,48.3,2.5,96.9,1.1,145.3
	c-0.3,9.4-10.2,23.1-19.1,26.8c-48.5,20.1-98.8,22-148.6,4.4c-29.9-10.6-45-36.7-44.5-71c0.5-36.5,15.2-62.8,47.2-70.8
	C503.3,682.5,535.8,681.5,569.8,677.4z M571.7,761c0-29.6-0.6-30.2-31.1-30.2s-45,9.9-44.8,30.6c0.2,19.8,14.5,29.5,43.5,29.5
	C570.5,790.8,571.7,789.7,571.7,761z"/>
<path d="M1043.2,679.7c4.3-35.4-7.1-49.4-41.4-47.9c-19.1,0.9-38.2,5-56.9,9.3c-11.9,2.7-21.1,1.8-22.3-11.3
	c-1.2-13.8-16.8-32.8,6.1-40.6c38.2-13,78.2-18.6,118.3-9.8c36.9,8,60.9,35.1,63,74.3c2.6,49.8,2.3,99.7,0.9,149.6
	c-0.2,8.5-10.6,20.8-19.2,24.4c-45.7,19-93.3,21.2-140.6,6.9C913,823,896.4,795.3,899.6,754c3-39.6,24.5-63.8,65.4-69.6
	C990.3,680.8,1016.1,681.2,1043.2,679.7z M1043.8,730.9c-19.4,1.3-38.5,0.6-56.5,4.7c-7.1,1.6-16,13.4-16.6,21.2
	c-0.7,8.9,5.2,24.9,11.2,26.4c17.8,4.5,37.4,5.5,55.6,2.9c4.1-0.6,5.6-21.6,7.4-33.4C1045.7,747.4,1044.4,741.6,1043.8,730.9z"/>
<path d="M841.8,586.8c25.3,6.2,14.3,24.5,12.2,39.8c-2.3,17-11.8,17.6-26.2,14c-16.5-4.1-33.8-7.7-50.6-7.1c-3,0.1-6,1.6-8.9,3.8
	c-9.6,7.1-11.1,20.9-2.9,29.6c1.7,1.8,3.5,3.3,5.5,4.3c17.7,9,37.3,14.3,55.4,22.7c30.3,14,45.3,37.8,43.2,71.8
	c-2.1,32-15.8,55.6-46.6,67.9c-44.9,18-89.2,10-131.8-6.2c-22.1-8.4-8.4-28.8-4.1-43.3c0.5-3.8,14.2-8.8,21.4-8.1
	c19.8,1.9,39.3,7.4,59.1,9.6c13.2,1.5,26.6-1.4,30.1-17.5c3.3-15.5-6.3-24.1-19.1-29.3c-11.2-4.6-22.9-7.9-34.5-11.7
	c-45.1-15.1-67.3-46-61.2-85.4c6.2-40.2,37.7-64.4,85-65.5c2.9-0.1,5.7,0,8.6,0C776.7,575.2,820.4,581.6,841.8,586.8z"/>
<path d="M1194.2,644.2c-18.9-3.4-35.3-4.7-50.1-10.2c-3.8-1.4-4.2-15.7-3.9-24c0.4-11.8-5.2-27.9,14.3-30.3
	c11.9-1.4,24.1-0.3,39.7-0.3c0-15.2-0.1-28.4,0-41.6c0.3-25.1,4.6-29.3,30.2-30.3c3.6-0.1,7.2-0.2,10.7-0.1
	c30.8,0.6,34.4,4.2,34.5,34.7c0,67.7,0,135.4,0,203.1c0,30.7,6,35.9,37.2,33.1c2.1-0.2,4.4,0.1,6.4-0.6c23.4-8,29.2,4.2,32.8,24.7
	c3.7,21.5-5.5,28.8-24.3,30.6c-19.9,1.9-39.8,5.4-59.6,5.2c-37.3-0.4-59.9-20.8-65.4-57.6c-2.2-14.7-2.3-29.8-2.5-44.7
	C1193.9,705.4,1194.2,674.8,1194.2,644.2z"/>
<path d="M306.6,708.8c0-34.2,0.8-68.4-0.3-102.5c-0.6-19.7,8-26.4,26.5-27.2c46.3-1.9,49.3,0.5,49.3,45.7c0,60.5,0.5,121-0.5,181.5
	c-0.2,10-6.1,27.9-11.1,28.5c-19.1,2.5-39,0.1-58.3-2.5c-2.7-0.4-5.3-12.3-5.4-18.9C306.3,778.6,306.6,743.7,306.6,708.8z"/>
<path d="M1324.9,643.4c-24.2,0.2-33.8-9-34.2-32.9c-0.4-24.4,8.6-34,32.4-34.4c25.4-0.5,35.8,9.3,35.8,33.6
	C1358.9,632.9,1348.5,643.2,1324.9,643.4z"/>
</svg>
