<svg version="1.2" xmlns="http://www.w3.org/2000/svg" viewBox="0 0 1920 622" width="1920" height="622"><style>.a{fill:#fff}</style><path class="a" d="m1634.3 283.8c-2.1 0.1-4.2 0.1-6.3 0.2-7.1-24-14-48-21.3-72-8-26.4-25.5-40.5-48.9-40.1-22.3 0.4-38.8 14.4-46.9 39.9-1.5 4.7-2.6 9.6-4 14.4-9.7 33.1-19.5 66.2-30.9 104.7-4-11.8-6.1-17.8-8-23.7-7.8-24.1-23.4-34.2-44.8-28.7-20.5 5.3-29.4 23.2-23 47.8 5.4 20.7 12 41 17.6 61.6 5 18.5 15.7 31 35.8 30.9 20-0.1 30.6-12.6 35.7-31.1 8.2-29.5 17-58.9 25.7-88.2 1.2-4.1 3.9-7.8 8.6-17 4.4 11.5 7.2 17.6 9.1 23.9 6.9 23.2 13.4 46.5 20.3 69.7 8.5 28.2 26.1 44.4 47.9 44.2 24.5-0.2 42.3-15.2 50.4-44.3 15.8-56.9 30.5-114 46.2-170.9 4.7-16.9 11.1-33.3 17.5-52.1 5 4.7 7.3 5.8 7.7 7.5 12.3 42.3 23.9 84.7 36.6 126.8 10.2 33.9 19.8 68.3 33.2 101 9.9 24.1 46.5 35.9 68 30.1 50.9-13.7 58.1-60.6 46.4-98-8.1-25.8-15.8-51.7-23.3-77.6-17.8-61.4-35-122.9-53-184.2-10.6-36-31.4-51.8-65.9-51.5-32.2 0.2-54.4 17.9-64 51.3-12.9 45-25.5 90.1-38.7 135.1-8.7 30.1-18.4 60.1-27.7 90.3zm-1491.7 241.1c-1.4-0.2-2.9-0.3-4.3-0.5-18.7-69.4-37.5-138.7-56.2-208.1-9.3-34.3-13.6-37.7-48.6-36.8-28.8 0.8-33.3 6.5-25.5 33.6 24.8 86.9 49.8 173.8 74.8 260.7 8.8 30.6 16.3 36.3 48.7 36.9 6.4 0.1 12.9 0.1 19.4-0.1 31.1-0.7 38.7-6.4 47.3-35.8 12.8-43.7 25.5-87.5 38.1-131.2 12.8-44.4 25.7-88.9 38.2-133.4 6.3-22.7 1.8-28.7-21-30.3-40-2.7-44.7 0.7-54.9 39.2-1.5 5.5-3.1 11-4.5 16.5-17.3 63.1-34.4 126.2-51.5 189.3zm427.2-75.5c-34 4.2-66.4 5.1-97.2 12.7-32 8-46.7 34.3-47.2 70.8-0.5 34.3 14.6 60.4 44.5 71 49.8 17.6 100.1 15.7 148.6-4.4 8.9-3.7 18.8-17.4 19.1-26.8 1.5-48.4 1.5-96.9-1.1-145.3-1.9-36.3-20.5-64.2-57.3-74.3-42-11.5-84.2-5.6-124.4 8.5-22 7.7-7.2 26.9-5.6 40.8 1.5 13.5 11.3 13.1 22.7 10.7 19.5-4.2 39.3-8.3 59-9.1 32.1-1.3 44 14.6 38.9 45.4zm473.4 2.3c-27.1 1.5-52.9 1.1-78.2 4.7-41 5.8-62.4 30-65.4 69.6-3.2 41.3 13.4 69 51.5 80.6 47.3 14.3 94.9 12.1 140.6-6.9 8.6-3.6 18.9-15.9 19.2-24.4 1.4-49.8 1.7-99.8-0.9-149.6-2.1-39.2-26.1-66.3-63-74.3-40.1-8.7-80.1-3.2-118.3 9.8-22.9 7.8-7.4 26.8-6.1 40.6 1.2 13.1 10.4 14 22.3 11.3 18.7-4.3 37.8-8.4 56.9-9.3 34.3-1.5 45.7 12.5 41.4 47.9zm-266.2-106.1c-0.2 0.8-0.3 1.7-0.5 2.5-2.9 0-5.7-0.1-8.6 0-47.4 1.1-78.8 25.3-85 65.5-6.1 39.4 16.1 70.3 61.2 85.4 11.5 3.8 23.2 7.1 34.5 11.7 12.8 5.2 22.4 13.9 19.1 29.3-3.5 16.1-16.9 19-30.1 17.5-19.8-2.2-39.3-7.8-59.1-9.6-7.2-0.7-20.9 4.3-21.4 8.1-1.9 14.5-18 34.9 4.1 43.3 42.5 16.2 86.9 24.2 131.8 6.2 30.8-12.3 44.5-35.9 46.6-67.9 2.2-34-12.8-57.8-43.2-71.8-18.1-8.4-37.7-13.6-55.4-22.7-7.5-3.8-11.7-13.7-17.5-20.9 7.9-5.9 15.6-16.5 23.8-16.8 16.8-0.6 34.1 2.9 50.6 7.1 14.3 3.6 23.9 3.1 26.2-14 2.1-15.3 13.2-33.6-12.2-39.8-21.5-5.2-43.3-8.8-64.9-13.1zm417.2 70.6c0 30.6-0.2 61.2 0.1 91.8 0.2 14.9 0.3 30 2.5 44.7 5.5 36.8 28.1 57.2 65.4 57.6 19.8 0.2 39.7-3.3 59.6-5.2 18.8-1.8 28-9 24.3-30.6-3.5-20.5-9.3-32.7-32.8-24.7-2 0.7-4.3 0.4-6.4 0.6-31.2 2.8-37.2-2.4-37.2-33.1-0.1-67.7 0-135.4 0-203.1 0-30.5-3.7-34.1-34.5-34.7-3.6-0.1-7.2 0-10.7 0.1-25.6 1-29.9 5.2-30.2 30.3-0.2 13.2 0 26.4 0 41.6-15.7 0-27.9-1.2-39.7 0.3-19.5 2.3-13.9 18.5-14.3 30.3-0.3 8.3 0.1 22.6 3.9 24 14.7 5.4 31 6.7 50 10.1zm-887.6 64.6c0 34.9-0.3 69.8 0.2 104.6 0.1 6.6 2.7 18.6 5.4 18.9 19.3 2.6 39.2 5 58.3 2.5 5-0.7 10.9-18.5 11.1-28.5 1-60.5 0.5-121 0.5-181.5 0-45.2-3-47.6-49.3-45.7-18.5 0.8-27.1 7.5-26.5 27.2 1.1 34.1 0.3 68.3 0.3 102.5zm1018.3-65.4c23.6-0.2 33.9-10.4 34-33.7 0-24.3-10.4-34.1-35.8-33.6-23.9 0.4-32.9 10-32.4 34.4 0.4 23.9 10 33.1 34.2 32.9z"/><path  d="m1634.3 283.8c9.3-30.2 19-60.2 27.9-90.5 13.2-44.9 25.8-90.1 38.7-135.1 9.6-33.5 31.7-51.1 64-51.3 34.5-0.2 55.3 15.5 65.9 51.5 18 61.3 35.3 122.8 53 184.2 7.5 26 15.3 51.8 23.3 77.6 11.7 37.4 4.5 84.3-46.4 98-21.5 5.8-58.1-6-68-30.1-13.4-32.7-23-67.1-33.2-101-12.7-42.1-24.3-84.6-36.6-126.8-0.5-1.6-2.8-2.8-7.7-7.5-6.4 18.9-12.9 35.3-17.5 52.1-15.7 56.9-30.5 114.1-46.2 170.9-8.1 29.2-25.9 44.1-50.4 44.3-21.7 0.2-39.4-16-47.9-44.2-7-23.2-13.4-46.5-20.3-69.7-1.9-6.3-4.7-12.4-9.1-23.9-4.7 9.2-7.3 12.9-8.6 17-8.8 29.4-17.6 58.7-25.7 88.2-5.1 18.5-15.7 31-35.7 31.1-20 0.1-30.7-12.4-35.8-30.9-5.6-20.6-12.3-41-17.6-61.6-6.4-24.6 2.5-42.5 23-47.8 21.4-5.5 37 4.5 44.8 28.7 1.9 6 4 11.9 8 23.7 11.3-38.4 21.1-71.5 30.9-104.7 1.4-4.8 2.5-9.7 4-14.4 8-25.5 24.5-39.4 46.9-39.9 23.4-0.4 40.9 13.7 48.9 40.1 7.3 23.9 14.2 48 21.3 72 1.9 0.1 4 0 6.1 0z"/><path  d="m142.6 524.9c17.1-63.1 34.2-126.2 51.2-189.3 1.5-5.5 3.1-11 4.5-16.5 10.2-38.5 14.9-41.9 54.9-39.2 22.8 1.6 27.4 7.6 21 30.3-12.5 44.5-25.4 89-38.2 133.4-12.6 43.8-25.3 87.5-38.1 131.2-8.6 29.4-16.1 35.1-47.3 35.8-6.4 0.2-12.9 0.2-19.4 0.1-32.3-0.6-39.9-6.3-48.7-36.9-24.7-86.9-49.7-173.8-74.5-260.7-7.7-27.1-3.2-32.8 25.6-33.5 35-0.9 39.4 2.4 48.6 36.8 18.7 69.4 37.4 138.7 56.2 208.1 1.3 0 2.8 0.2 4.2 0.4z"/><path  d="m569.8 449.4c5.1-30.8-6.7-46.7-38.8-45.4-19.8 0.8-39.6 4.9-59 9.1-11.4 2.5-21.2 2.8-22.7-10.7-1.6-13.9-16.4-33.1 5.6-40.8 40.2-14.1 82.4-20.1 124.4-8.5 36.8 10.1 55.4 38.1 57.3 74.3 2.6 48.3 2.5 96.9 1.1 145.3-0.3 9.4-10.2 23.1-19.1 26.8-48.5 20.1-98.8 22-148.6 4.4-29.9-10.6-45-36.7-44.5-71 0.5-36.5 15.2-62.8 47.2-70.8 30.6-7.6 63.1-8.6 97.1-12.7zm1.9 83.6c0-29.6-0.6-30.2-31.1-30.2-30.5 0-45 9.9-44.8 30.6 0.2 19.8 14.5 29.5 43.5 29.5 31.2-0.1 32.4-1.2 32.4-29.9z"/><path  d="m1043.2 451.7c4.3-35.4-7.1-49.4-41.4-47.9-19.1 0.9-38.2 5-56.9 9.3-11.9 2.7-21.1 1.8-22.3-11.3-1.2-13.8-16.8-32.8 6.1-40.6 38.2-13 78.2-18.6 118.3-9.8 36.9 8 60.9 35.1 63 74.3 2.6 49.8 2.3 99.7 0.9 149.6-0.2 8.5-10.6 20.8-19.2 24.4-45.7 19-93.3 21.2-140.6 6.9-38.1-11.6-54.7-39.3-51.5-80.6 3-39.6 24.5-63.8 65.4-69.6 25.3-3.6 51.1-3.2 78.2-4.7zm0.6 51.2c-19.4 1.3-38.5 0.6-56.5 4.7-7.1 1.6-16 13.4-16.6 21.2-0.7 8.9 5.2 24.9 11.2 26.4 17.8 4.5 37.4 5.5 55.6 2.9 4.1-0.6 5.6-21.6 7.4-33.4 0.8-5.3-0.5-11.1-1.1-21.8z"/><path  d="m841.8 358.8c25.3 6.2 14.3 24.5 12.2 39.8-2.3 17-11.8 17.6-26.2 14-16.5-4.1-33.8-7.7-50.6-7.1-3 0.1-6 1.6-8.9 3.8-9.6 7.1-11.1 20.9-2.9 29.6 1.7 1.8 3.5 3.3 5.5 4.3 17.7 9 37.3 14.3 55.4 22.7 30.3 14 45.3 37.8 43.2 71.8-2.1 32-15.8 55.6-46.6 67.9-44.9 18-89.2 10-131.8-6.2-22.1-8.4-8.4-28.8-4.1-43.3 0.5-3.8 14.2-8.8 21.4-8.1 19.8 1.9 39.3 7.4 59.1 9.6 13.2 1.5 26.6-1.4 30.1-17.5 3.3-15.5-6.3-24.1-19.1-29.3-11.2-4.6-22.9-7.9-34.5-11.7-45.1-15.1-67.3-46-61.2-85.4 6.2-40.2 37.7-64.4 85-65.5 2.9-0.1 5.7 0 8.6 0 0.3-1 44 5.4 65.4 10.6z"/><path  d="m1194.2 416.2c-18.9-3.4-35.3-4.7-50.1-10.2-3.8-1.4-4.2-15.7-3.9-24 0.4-11.8-5.2-27.9 14.3-30.3 11.9-1.4 24.1-0.3 39.7-0.3 0-15.2-0.1-28.4 0-41.6 0.3-25.1 4.6-29.3 30.2-30.3 3.6-0.1 7.2-0.2 10.7-0.1 30.8 0.6 34.4 4.2 34.5 34.7q0 101.5 0 203.1c0 30.7 6 35.9 37.2 33.1 2.1-0.2 4.4 0.1 6.4-0.6 23.4-8 29.2 4.2 32.8 24.7 3.7 21.5-5.5 28.8-24.3 30.6-19.9 1.9-39.8 5.4-59.6 5.2-37.3-0.4-59.9-20.8-65.4-57.6-2.2-14.7-2.3-29.8-2.5-44.7-0.3-30.5 0-61.1 0-91.7z"/><path  d="m306.6 480.8c0-34.2 0.8-68.4-0.3-102.5-0.6-19.7 8-26.4 26.5-27.2 46.3-1.9 49.3 0.5 49.3 45.7 0 60.5 0.5 121-0.5 181.5-0.2 10-6.1 27.9-11.1 28.5-19.1 2.5-39 0.1-58.3-2.5-2.7-0.4-5.3-12.3-5.4-18.9-0.5-34.8-0.2-69.7-0.2-104.6z"/><path  d="m1324.9 415.4c-24.2 0.2-33.8-9-34.2-32.9-0.4-24.4 8.6-34 32.4-34.4 25.4-0.5 35.8 9.3 35.8 33.6 0 23.2-10.4 33.5-34 33.7z"/></svg>